<?xml version="1.0" encoding="UTF-8"?>
<svg version="1.1" xmlns="http://www.w3.org/2000/svg" width="1312" height="574">
<path d="M0 0 C6.29047722 3.79024526 10.24724645 10.60305929 12.5 17.4375 C31.24766149 100.81219335 -23.58679722 207.86849415 -66.375 275.625 C-67.10315918 276.55634766 -67.83131836 277.48769531 -68.58154297 278.44726562 C-70.76716458 282.31985627 -70.63926556 285.03246815 -70.06640625 289.27734375 C-69.98576935 290.00570435 -69.90513245 290.73406494 -69.822052 291.48449707 C-69.55216929 293.84757744 -69.24694005 296.20429788 -68.9375 298.5625 C-68.73693004 300.19859325 -68.53681899 301.83474282 -68.3371582 303.47094727 C-65.0236329 329.86265282 -60.09882689 364.90117311 -40.375 384.625 C-17.67551845 374.96776443 -3.1951126 326.99091642 6.25 305.375 C12.26752742 291.60860753 18.67728776 278.07360732 25.375 264.625 C26.01106171 263.33789124 26.01106171 263.33789124 26.65997314 262.02478027 C40.04644228 234.99174643 56.06952463 208.84558371 76.625 186.625 C81.90703162 190.35349291 86.84717119 194.40801699 91.6875 198.6875 C92.28393311 199.1937793 92.88036621 199.70005859 93.49487305 200.22167969 C95.16015625 201.72265625 95.16015625 201.72265625 97.625 204.625 C97.59375 207.2109375 97.59375 207.2109375 96.625 209.625 C96.25181641 210.74068359 96.25181641 210.74068359 95.87109375 211.87890625 C95.60425781 212.64074219 95.33742188 213.40257812 95.0625 214.1875 C92.42029884 222.93409693 92.42006991 232.36013741 96.625 240.625 C98.98853824 243.41059864 100.24316616 243.57359929 103.875 244.0625 C112.54987077 243.05043174 118.12726696 238.14314561 123.625 231.625 C133.03744049 219.22074807 140.56394807 205.57323769 148.125 192 C190.29111703 116.40296099 190.29111703 116.40296099 216.625 107.625 C219.265 107.625 221.905 107.625 224.625 107.625 C224.625 113.895 224.625 120.165 224.625 126.625 C223.305 127.140625 221.985 127.65625 220.625 128.1875 C215.40026424 130.53046744 211.65608748 133.6017096 207.625 137.625 C206.92761719 138.31078125 206.23023438 138.9965625 205.51171875 139.703125 C188.95608595 156.99391023 178.07395985 180.57808992 166.5625 201.3125 C158.10010044 216.52657464 149.44769794 231.93392554 138.625 245.625 C138.05652344 246.3571875 137.48804688 247.089375 136.90234375 247.84375 C129.42959874 256.96764823 119.51341673 262.78093941 107.71875 264.04296875 C98.51021707 264.51444738 90.8994788 263.34909841 83.828125 257.015625 C75.83861679 248.39328445 73.62376402 237.97936993 72.625 226.625 C54.13546361 254.40599533 39.77345122 284.40927687 25.84765625 314.66015625 C-11.9871683 396.70358085 -11.9871683 396.70358085 -33.375 404.625 C-41.44309441 405.79576449 -47.72721891 404.3098963 -54.375 399.625 C-79.12623763 380.27324702 -84.50295666 335.6175989 -88.375 306.625 C-88.94605469 307.3778125 -89.51710937 308.130625 -90.10546875 308.90625 C-99.0600849 320.65859692 -108.16081308 332.34806844 -118.1796875 343.21875 C-120.02832131 345.24501054 -121.83447133 347.29660169 -123.6328125 349.3671875 C-127.45671435 353.74757173 -131.39535955 358.01114925 -135.375 362.25 C-136.04789063 362.97445313 -136.72078125 363.69890625 -137.4140625 364.4453125 C-141.51879372 368.81946623 -145.74848579 372.80571613 -150.375 376.625 C-145.46466377 387.00621312 -138.47921693 395.67994196 -131.375 404.625 C-130.57578125 405.64078125 -129.7765625 406.6565625 -128.953125 407.703125 C-105.65801912 436.77949804 -75.93028427 465.72390454 -37.375 470.625 C-4.73027507 473.20221513 27.4765292 453.92103916 51.63671875 433.71264648 C71.89501014 416.35390009 86.50159855 395.08293293 96.1875 370.3125 C102.86220308 353.30395506 111.53830039 342.31123606 128.0625 334.10546875 C140.54542464 328.91793757 154.9761859 328.77390869 167.67578125 333.37890625 C183.6290774 340.119438 193.28096082 350.07659522 199.92236328 365.87597656 C205.10917562 378.78713833 203.64745747 393.91287939 198.625 406.625 C192.17099775 420.20131835 181.80701873 429.72152325 167.75 435 C161.46353875 437.15803894 155.68796428 437.77459583 149.0546875 437.8359375 C147.33462687 437.86406522 145.61457495 437.89272984 143.89453125 437.921875 C141.22087422 437.96259797 138.54736924 437.99952446 135.87353516 438.02636719 C119.78369329 438.20135515 103.85635356 439.44564695 88.4375 444.375 C87.20036255 444.76014771 87.20036255 444.76014771 85.93823242 445.15307617 C77.89315006 447.7323741 70.21196901 450.91986584 62.625 454.625 C61.92777832 454.96402344 61.23055664 455.30304688 60.51220703 455.65234375 C24.70094099 473.29543083 -1.36451294 501.50139671 -18 537.5625 C-21.10280699 544.25848489 -24.18238972 550.27400945 -29.375 555.625 C-30.03886719 556.32753906 -30.70273437 557.03007813 -31.38671875 557.75390625 C-41.07899767 567.20257314 -52.56873901 569.92703361 -65.71923828 569.93969727 C-77.8533366 569.72130934 -88.3632643 564.86814159 -97.40625 556.81640625 C-106.02904902 547.72086606 -109.27706179 536.67147407 -111.375 524.625 C-116.86269681 493.28677233 -125.55265408 463.70085291 -140.40869141 435.47216797 C-141.36836642 433.63768057 -142.30125939 431.79148025 -143.23046875 429.94140625 C-149.97899959 416.68630281 -158.36046048 404.43543975 -167.375 392.625 C-171.4433586 395.63794285 -175.47700923 398.68294884 -179.42578125 401.8515625 C-189.94877424 410.27020316 -200.79943049 417.72961389 -212.375 424.625 C-213.39110352 425.23335693 -213.39110352 425.23335693 -214.42773438 425.85400391 C-232.19594179 436.40442955 -250.60109696 444.62410032 -270.375 450.625 C-271.21580019 448.21070231 -272.04781402 445.79396007 -272.875 443.375 C-273.11347656 442.69308594 -273.35195313 442.01117188 -273.59765625 441.30859375 C-274.76921287 437.86086997 -275.375 435.30797096 -275.375 431.625 C-274.72241211 431.37443848 -274.06982422 431.12387695 -273.39746094 430.86572266 C-239.38769272 417.73235332 -208.98146017 400.60472913 -181.375 376.625 C-184.88732969 370.7009344 -189.56067947 366.13486001 -194.4375 361.3125 C-195.72068115 360.03838257 -195.72068115 360.03838257 -197.02978516 358.73852539 C-202.8916444 352.96834451 -208.81738222 347.59769506 -215.375 342.625 C-216.37273437 341.83351563 -217.37046875 341.04203125 -218.3984375 340.2265625 C-234.89657408 327.17711757 -252.84114654 315.84741779 -271.96875 307.06640625 C-272.62648911 306.76413116 -273.28422821 306.46185608 -273.9618988 306.15042114 C-277.20300083 304.66805837 -280.45264744 303.21003317 -283.71899414 301.78417969 C-299.26302692 294.88667991 -311.94087942 285.01805577 -319.75 269.6875 C-320.23291504 268.73991821 -320.23291504 268.73991821 -320.72558594 267.77319336 C-325.16833295 258.50336645 -326.9007403 249.42664261 -326.75 239.1875 C-326.73912354 238.1776001 -326.72824707 237.1677002 -326.71704102 236.12719727 C-326.30928389 217.05801209 -318.76953035 202.71830403 -305.375 189.625 C-304.81425781 189.03203125 -304.25351562 188.4390625 -303.67578125 187.828125 C-291.9406642 176.37021544 -274.09218496 172.0860952 -258.24975586 172.20483398 C-240.27362143 172.79891382 -225.01631892 179.78267071 -212.375 192.625 C-211.72789062 193.27339844 -211.08078125 193.92179688 -210.4140625 194.58984375 C-195.74537734 210.25138751 -194.42152235 231.64095843 -192.98828125 252.03125 C-190.60391963 284.86011488 -181.21453291 316.16986831 -167.39526367 345.953125 C-165.46291811 350.12339635 -163.71680154 354.2162235 -162.375 358.625 C-151.86645587 349.94402876 -142.14413239 340.05010589 -133.375 329.625 C-132.4778972 328.58998747 -131.57931725 327.55625438 -130.6796875 326.5234375 C-120.25245318 314.52074348 -110.43929102 302.05126999 -101.0625 289.2109375 C-99.52931978 287.1199452 -98.02627326 285.25191368 -96.25 283.3515625 C-91.70909408 278.20099792 -92.07737442 273.22457489 -92.4375 266.6875 C-92.63445848 264.07437988 -92.86532676 261.46594971 -93.1027832 258.85620117 C-94.25787834 245.14527369 -94.58136475 231.44199522 -94.5625 217.6875 C-94.56156342 216.79359558 -94.56062683 215.89969116 -94.55966187 214.97869873 C-94.40596625 146.83324109 -83.71375784 60.22612472 -34.03125 9.21875 C-24.576674 0.29682617 -12.96832672 -5.25267497 0 0 Z M-20.375 23.625 C-20.94476563 24.09679687 -21.51453125 24.56859375 -22.1015625 25.0546875 C-60.42357235 60.10752116 -70.71467106 135.90100892 -74.375 184.625 C-74.50527588 186.26359985 -74.50527588 186.26359985 -74.63818359 187.93530273 C-75.40500326 198.60359657 -75.52913212 209.23557798 -75.50537109 219.92895508 C-75.49993654 222.84656804 -75.50539041 225.76403187 -75.51171875 228.68164062 C-75.51105909 230.55208367 -75.50978026 232.42252662 -75.5078125 234.29296875 C-75.50983673 235.15754196 -75.51186096 236.02211517 -75.51394653 236.91288757 C-75.49821822 240.94890837 -75.38520948 244.68698876 -74.375 248.625 C-70.5377225 244.19041043 -67.74720679 239.33228345 -64.875 234.25 C-64.35164063 233.32517822 -63.82828125 232.40035645 -63.2890625 231.44750977 C-32.79603861 177.20476078 10.20928863 86.42314721 -7.62109375 21.8203125 C-8.32303605 19.61854499 -8.32303605 19.61854499 -9.375 17.625 C-14.13113286 17.625 -16.81788545 20.67616526 -20.375 23.625 Z " fill="#2A936A" transform="translate(326.375,1.375)"/>
<path d="M0 0 C10.16754663 8.10335335 18.76562591 20.39577567 20.8203125 33.55078125 C22.14749749 51.64088971 19.11271199 66.35350016 7.3125 80.6875 C-1.71438936 90.40084482 -14.65317924 96.6256636 -27.93798828 97.15771484 C-29.48204945 97.17915283 -31.02616854 97.19665793 -32.5703125 97.2109375 C-34.29037313 97.23906522 -36.01042505 97.26772984 -37.73046875 97.296875 C-40.40412578 97.33759797 -43.07763076 97.37452446 -45.75146484 97.40136719 C-61.84130671 97.57635515 -77.76864644 98.82064695 -93.1875 103.75 C-94.0122583 104.00676514 -94.8370166 104.26353027 -95.68676758 104.52807617 C-103.73184994 107.1073741 -111.41303099 110.29486584 -119 114 C-119.69722168 114.33902344 -120.39444336 114.67804688 -121.11279297 115.02734375 C-156.92405901 132.67043083 -182.98951294 160.87639671 -199.625 196.9375 C-202.72780699 203.63348489 -205.80738972 209.64900945 -211 215 C-211.66386719 215.70253906 -212.32773437 216.40507813 -213.01171875 217.12890625 C-222.70399767 226.57757314 -234.19373901 229.30203361 -247.34423828 229.31469727 C-259.4783366 229.09630934 -269.9882643 224.24314159 -279.03125 216.19140625 C-287.65404902 207.09586606 -290.90206179 196.04647407 -293 184 C-298.48769681 152.66177233 -307.17765408 123.07585291 -322.03369141 94.84716797 C-322.99336642 93.01268057 -323.92625939 91.16648025 -324.85546875 89.31640625 C-331.60399959 76.06130281 -339.98546048 63.81043975 -349 52 C-347.1304555 47.89041027 -344.36738473 45.24443777 -341.0625 42.25 C-340.52431641 41.74339844 -339.98613281 41.23679687 -339.43164062 40.71484375 C-335.37134645 37 -335.37134645 37 -332 37 C-330.66796875 38.73828125 -330.66796875 38.73828125 -329.1875 41.3125 C-321.11345085 54.53546608 -311.66286149 66.77695195 -301 78 C-299.84716152 79.32728115 -298.70085933 80.66027994 -297.5625 82 C-276.3962142 106.31127638 -248.56064899 127.66626455 -215.4375 130.28125 C-180.13701421 131.22679873 -145.65864515 108.35340558 -121 85 C-105.09053164 69.27004609 -93.54894694 50.43147034 -85.4375 29.6875 C-78.76279692 12.67895506 -70.08669961 1.68623606 -53.5625 -6.51953125 C-35.90974696 -13.85548893 -15.60119783 -10.80082927 0 0 Z " fill="#707172" transform="translate(508,342)"/>
<path d="M0 0 C8.76245798 -0.09048531 17.52460402 -0.1638217 26.28742409 -0.20724869 C30.35666939 -0.2280949 34.42557759 -0.25635753 38.49462891 -0.30175781 C42.42390618 -0.3453226 46.35285987 -0.36915942 50.28236008 -0.37950897 C51.77905748 -0.38688138 53.27573782 -0.4012782 54.77229691 -0.42292023 C56.87413602 -0.45209757 58.97465006 -0.45595032 61.07666016 -0.45410156 C62.27134918 -0.46298401 63.46603821 -0.47186646 64.69692993 -0.48101807 C68.69959857 0.10188084 70.85061908 1.51060745 74 4 C75.65234375 6.22875977 75.65234375 6.22875977 76.9375 8.69140625 C77.43258057 9.62227051 77.92766113 10.55313477 78.43774414 11.51220703 C78.95328857 12.51880371 79.46883301 13.52540039 80 14.5625 C80.83422485 16.14587158 80.83422485 16.14587158 81.68530273 17.76123047 C83.47347683 21.1657781 85.23861726 24.58152377 87 28 C88.17793928 30.27236674 89.35632317 32.54450306 90.53515625 34.81640625 C92.3074395 38.23508223 94.07780235 41.65468319 95.84228516 45.07739258 C99.42776192 52.02146119 103.10025487 58.90719426 106.875 65.75 C111.74683979 74.58530074 116.39575199 83.52358031 121 92.5 C126.60223091 103.42067866 132.32394817 114.26031094 138.25390625 125.0078125 C141.54131839 130.98407524 144.76627792 136.99451614 148 143 C148.495 72.215 148.495 72.215 149 0 C159.89 0 170.78 0 182 0 C182.06772686 23.21780892 182.12298758 46.43553783 182.15543652 69.65342045 C182.17090374 80.43394063 182.19199055 91.21439506 182.22631836 101.99487305 C182.25622507 111.39140967 182.27557606 120.78789867 182.28226548 130.18448156 C182.28617557 135.15965414 182.29536192 140.1346905 182.31719017 145.10981941 C182.33757535 149.79405956 182.34382966 154.47810756 182.33932304 159.16238785 C182.34014733 160.88005683 182.34610087 162.59773235 182.35761642 164.31536293 C182.37259256 166.66470512 182.36893529 169.01332649 182.36076355 171.36268616 C182.36352893 172.67624116 182.36629431 173.98979616 182.36914349 175.34315586 C181.84958385 180.49006671 180.38049067 184.36066733 177 188.375 C172.99708508 191.62736837 168.72615142 191.13037757 163.83203125 191.09765625 C163.03721848 191.0962413 162.2424057 191.09482635 161.42350769 191.09336853 C158.88646675 191.08777378 156.34951425 191.07522228 153.8125 191.0625 C152.09179815 191.05748432 150.37109492 191.05292153 148.65039062 191.04882812 C144.4335597 191.03780607 140.21679484 191.02054506 136 191 C129.31453601 178.92760574 122.8065906 166.77405855 116.5 154.5 C111.62323398 145.00962172 106.6397833 135.59100179 101.48828125 126.24609375 C97.54031026 119.05740861 93.75590856 111.79061024 90 104.5 C85.72097869 96.19480066 81.37246288 87.93893827 76.875 79.75 C70.76990022 68.57896635 64.88867122 57.28661984 59 46 C58.67 93.85 58.34 141.7 58 191 C46.45 191 34.9 191 23 191 C22.99589111 185.99755127 22.99178223 180.99510254 22.98754883 175.84106445 C22.9703727 159.33660049 22.92615953 142.83229148 22.86790943 126.32792377 C22.83324612 116.3186073 22.80790215 106.30942874 22.80444336 96.30004883 C22.80140533 87.57655677 22.7809366 78.85331024 22.73947543 70.12991303 C22.71812904 65.51023337 22.70555319 60.89090292 22.71384621 56.27117348 C22.72137604 51.923229 22.70560756 47.57599268 22.67193985 43.22817802 C22.66369362 41.63225517 22.66397194 40.03626206 22.67340279 38.44034576 C22.68500941 36.26048606 22.66593572 34.08295327 22.63923645 31.90327454 C22.63647107 30.68374242 22.63370569 29.4642103 22.63085651 28.20772266 C21.82280157 24.09899732 20.20288284 22.60592337 17 20 C14.91202169 19.24650366 14.91202169 19.24650366 12.79296875 19.29296875 C11.77626099 19.25079224 11.77626099 19.25079224 10.73901367 19.20776367 C9.89701416 19.20107666 9.05501465 19.19438965 8.1875 19.1875 C4.1346875 19.0946875 4.1346875 19.0946875 0 19 C0 12.73 0 6.46 0 0 Z " fill="#707172" transform="translate(1030,376)"/>
<path d="M0 0 C12.74477248 -0.06809784 25.48942177 -0.12300069 38.2343359 -0.15543652 C44.15393333 -0.17101335 50.07339855 -0.19210385 55.99291992 -0.22631836 C61.71825501 -0.25919891 67.44346388 -0.27691284 73.16888618 -0.28463173 C75.34027655 -0.29012419 77.51166094 -0.30084762 79.68299675 -0.31719017 C99.76652926 -0.46217366 122.17878075 -0.1797241 138 14 C138.61488281 14.52335937 139.22976563 15.04671875 139.86328125 15.5859375 C147.20947381 22.28717525 151.34401167 31.46043451 152.20483398 41.35424805 C152.30314638 43.8650916 152.32922416 46.36231468 152.3125 48.875 C152.30686035 49.75905518 152.3012207 50.64311035 152.29541016 51.55395508 C152.08278504 62.95887163 149.06377372 71.36861276 141.2890625 79.87109375 C135.65726599 85.20585458 128.87738192 88.55082523 122 92 C122.81082031 92.268125 123.62164063 92.53625 124.45703125 92.8125 C137.82765713 97.54436294 147.7611497 104.35966177 154.25 117.125 C159.76601296 130.58037889 158.96571822 146.32965938 154.34375 159.8984375 C148.94080238 172.36919451 138.68384509 180.66988804 126.3359375 185.90625 C108.9691034 191.60029397 90.87723196 192.16511439 72.7578125 192.09765625 C71.25324552 192.09578502 69.74867792 192.09436446 68.24411011 192.09336853 C64.33488198 192.08959874 60.42569259 192.07981765 56.51647949 192.06866455 C52.5070854 192.05832948 48.49768489 192.05384533 44.48828125 192.04882812 C36.65883674 192.03818884 28.82942385 192.02118137 21 192 C20.99668985 191.13178462 20.99337971 190.26356924 20.98996925 189.3690443 C20.90881955 168.26292008 20.81675363 147.15686825 20.71247292 126.05084515 C20.6623084 115.84421481 20.61586597 105.63759266 20.578125 95.4309082 C20.54522828 86.53683974 20.50541 77.6428341 20.45720994 68.74883491 C20.43192183 64.03765964 20.41014742 59.32652618 20.39665604 54.61530113 C20.38385661 50.18384912 20.36182527 45.75254031 20.33261681 41.32116699 C20.32352441 39.69214739 20.31784694 38.06310472 20.31578636 36.43406105 C20.3124755 34.21476247 20.29703056 31.99587281 20.2784729 29.7766571 C20.27294214 28.53315837 20.26741138 27.28965963 20.26171303 26.00847912 C20.22710552 22.82011235 20.22710552 22.82011235 18 20 C14.43755339 18.8125178 11.02681357 18.64932792 7.3125 18.4375 C4.899375 18.293125 2.48625 18.14875 0 18 C0 12.06 0 6.12 0 0 Z M59 28 C59 44.83 59 61.66 59 79 C63.558125 79.061875 68.11625 79.12375 72.8125 79.1875 C74.93328979 79.22846802 74.93328979 79.22846802 77.09692383 79.27026367 C89.38624411 79.35032719 100.25192252 77.56569701 109.3125 68.75 C114.0219856 61.07528272 114.95941771 53.82339018 113 45 C110.78440981 39.65080615 107.10806912 34.8418626 102 32 C92.39377144 28.03300486 83.46888619 27.49140635 73.1875 27.75 C66.1646875 27.87375 66.1646875 27.87375 59 28 Z M59 107 C59 125.48 59 143.96 59 163 C86.76814255 164.6568695 86.76814255 164.6568695 111.55078125 153.58984375 C117.90844748 146.55702712 118.62439084 139.93264726 118.40625 130.734375 C117.61244938 123.43751548 114.90219343 118.18384971 109.1875 113.5625 C101.14504622 108.20086415 92.99036619 106.86403854 83.4140625 106.90234375 C82.12967285 106.90484131 80.8452832 106.90733887 79.52197266 106.90991211 C77.09797119 106.92356812 77.09797119 106.92356812 74.625 106.9375 C66.890625 106.9684375 66.890625 106.9684375 59 107 Z " fill="#707172" transform="translate(824,108)"/>
<path d="M0 0 C2.50965309 2.19216686 4.88155284 4.45376393 7.21875 6.828125 C7.86585937 7.47652344 8.51296875 8.12492187 9.1796875 8.79296875 C23.84837266 24.45451251 25.17222765 45.84408343 26.60546875 66.234375 C29.06183099 100.05457386 39.10856131 131.84522808 53.203125 162.53515625 C53.54279297 163.27588379 53.88246094 164.01661133 54.23242188 164.77978516 C55.1137639 166.61009694 56.10506909 168.38650835 57.109375 170.15234375 C58.21875 172.828125 58.21875 172.828125 57.48510742 174.79541016 C56.18437902 176.88329615 54.8654196 178.35636664 53.06640625 180.02734375 C52.45474609 180.59646484 51.84308594 181.16558594 51.21289062 181.75195312 C50.57544922 182.33396484 49.93800781 182.91597656 49.28125 183.515625 C48.64767578 184.10923828 48.01410156 184.70285156 47.36132812 185.31445312 C42.60721261 189.69863746 42.60721261 189.69863746 39.21875 190.828125 C38.25388672 189.75498047 38.25388672 189.75498047 37.26953125 188.66015625 C26.93493243 177.23351931 16.41334451 166.29767046 4.21875 156.828125 C3.21328125 156.02890625 2.2078125 155.2296875 1.171875 154.40625 C-15.3304649 141.37581114 -33.253961 130.04752921 -52.375 121.26953125 C-53.03273911 120.96725616 -53.69047821 120.66498108 -54.3681488 120.35354614 C-57.60925083 118.87118337 -60.85889744 117.41315817 -64.12524414 115.98730469 C-79.66927692 109.08980491 -92.34712942 99.22118077 -100.15625 83.890625 C-100.47819336 83.25890381 -100.80013672 82.62718262 -101.13183594 81.97631836 C-105.57458295 72.70649145 -107.3069903 63.62976761 -107.15625 53.390625 C-107.14537354 52.3807251 -107.13449707 51.3708252 -107.12329102 50.33032227 C-106.71553389 31.26113709 -99.17578035 16.92142903 -85.78125 3.828125 C-84.94013672 2.93867188 -84.94013672 2.93867188 -84.08203125 2.03125 C-62.16969677 -19.36347028 -23.12681655 -18.05970506 0 0 Z " fill="#707172" transform="translate(106.78125,187.171875)"/>
<path d="M0 0 C14.4070921 -0.40096514 28.62276726 2.91434266 42.53515625 6.24023438 C44.14367985 6.61739198 45.75240344 6.99369768 47.36132812 7.36914062 C51.23413304 8.27476 55.10409626 9.1916578 58.97265625 10.11523438 C58.02063461 25.77938586 58.02063461 25.77938586 56.91015625 33.55273438 C56.73355469 34.80957031 56.55695313 36.06640625 56.375 37.36132812 C56.24222656 38.27011719 56.10945312 39.17890625 55.97265625 40.11523438 C50.89631978 41.84442469 47.16711766 40.12588982 42.34765625 38.42773438 C17.69655775 30.26155148 -5.88179464 27.02607885 -30.02734375 39.11523438 C-45.93792634 47.85003744 -56.55119053 61.3230657 -62.09375 78.56445312 C-67.31955535 98.44000571 -65.89973027 119.53210555 -56.03515625 137.72070312 C-47.10327996 152.8214823 -34.07244068 162.04163057 -17.33984375 166.86523438 C-1.93962479 170.72619578 10.04714968 168.09661102 25.97265625 164.11523438 C26.30265625 148.27523437 26.63265625 132.43523437 26.97265625 116.11523438 C6.28755422 115.44786031 6.28755422 115.44786031 -2.02734375 120.11523438 C-3.01734375 122.09523438 -3.01734375 122.09523438 -4.02734375 124.11523438 C-10.62734375 124.11523438 -17.22734375 124.11523438 -24.02734375 124.11523438 C-24.13585609 120.28113166 -24.21491509 116.45013755 -24.27734375 112.61523438 C-24.31085938 111.53757812 -24.344375 110.45992188 -24.37890625 109.34960938 C-24.4633654 102.42395896 -23.77864443 97.9895239 -20.02734375 92.11523438 C-14.68685749 87.7585219 -8.27376281 87.99024057 -1.64501953 88.00170898 C-0.92070677 88.00158845 -0.196394 88.00146791 0.54986763 88.00134373 C2.87572513 88.00208531 5.20150074 88.0096789 7.52734375 88.01757812 C8.97078411 88.01904988 10.41422501 88.02006915 11.85766602 88.02062988 C17.18767094 88.02585565 22.51766442 88.03981692 27.84765625 88.05273438 C39.76890625 88.07335937 51.69015625 88.09398437 63.97265625 88.11523438 C63.97265625 121.11523438 63.97265625 154.11523438 63.97265625 188.11523438 C42.03081335 195.0442374 42.03081335 195.0442374 32.78515625 196.92773438 C31.36879883 197.23227539 31.36879883 197.23227539 29.92382812 197.54296875 C-1.96454487 204.26682193 -38.19219797 201.13148359 -66.02734375 183.11523438 C-69.90378042 180.32048016 -73.49340256 177.32894788 -77.02734375 174.11523438 C-77.72085938 173.51453125 -78.414375 172.91382813 -79.12890625 172.29492188 C-95.04459172 157.64741851 -104.20347726 134.98065439 -105.18847656 113.62109375 C-105.22624823 110.32705277 -105.25846544 107.03349352 -105.26757812 103.73925781 C-105.27719302 101.64801838 -105.30823667 99.5578028 -105.33984375 97.46679688 C-105.54174991 71.67209495 -96.52402401 47.67041536 -78.46484375 29.05273438 C-57.01405493 7.83425223 -29.1867479 1.658977 0 0 Z " fill="#707172" transform="translate(943.02734375,370.884765625)"/>
<path d="M0 0 C10.00667304 -0.07002633 20.0132862 -0.12307512 30.02015591 -0.15543652 C34.66855566 -0.17098142 39.31678574 -0.19201089 43.96508789 -0.22631836 C48.46497792 -0.25931626 52.96470649 -0.2769366 57.46470833 -0.28463173 C59.16720173 -0.29010372 60.86968798 -0.30078483 62.57211113 -0.31719017 C83.59898379 -0.5114462 106.20237724 1.81426002 122.3125 16.75 C131.2444626 26.18720493 133.8600462 38.3481768 134 51 C133.29487893 62.80424906 130.46393693 74.45258947 122.0703125 83.19140625 C114.92618617 89.43240718 106.99774219 93.19799518 98 96 C98.65226562 96.46148437 99.30453125 96.92296875 99.9765625 97.3984375 C109.5331991 104.53067662 113.43807954 112.48464952 118.02734375 123.2109375 C118.41664062 124.12073868 118.8059375 125.03053986 119.20703125 125.96791077 C123.71646228 136.58471924 127.96146528 147.30482279 132.16894531 158.04418945 C133.52000923 161.48851033 134.88093194 164.92883682 136.2421875 168.36914062 C137.10996988 170.57789137 137.97717946 172.78686727 138.84375 174.99609375 C139.24783081 176.01481064 139.65191162 177.03352753 140.0682373 178.08311462 C140.43952759 179.03593826 140.81081787 179.9887619 141.19335938 180.97045898 C141.51929077 181.79980453 141.84522217 182.62915009 142.18103027 183.48362732 C143 186 143 186 144 192 C130.8 192 117.6 192 104 192 C96.10512621 171.69889596 96.10512621 171.69889596 93.0625 163.22265625 C92.38870828 161.37149443 91.71420913 159.52058997 91.0390625 157.66992188 C90.01262054 154.85311122 88.99020381 152.03514331 87.97949219 149.21264648 C81.58326514 129.10134705 81.58326514 129.10134705 66.94946289 114.97729492 C60.77807051 112.90637276 54.91898628 112.4626337 48.4375 112.3125 C47.42880859 112.27833984 46.42011719 112.24417969 45.38085938 112.20898438 C42.92068432 112.12736719 40.46082691 112.05794324 38 112 C38.15992432 112.77400146 38.31984863 113.54800293 38.48461914 114.34545898 C39.1504614 119.06691459 39.19428399 123.71008229 39.24609375 128.47265625 C39.27901389 130.52669726 39.31222583 132.58073362 39.34570312 134.63476562 C39.39318889 137.85617065 39.43768283 141.07755436 39.47680664 144.29907227 C39.51653009 147.41962276 39.56804985 150.53980773 39.62109375 153.66015625 C39.6295079 154.62172134 39.63792206 155.58328644 39.64659119 156.57398987 C39.66112672 163.06420077 39.66112672 163.06420077 42 169 C46.60909992 171.59263776 46.60909992 171.59263776 55 172 C55 178.6 55 185.2 55 192 C49.59206838 192.04609033 44.1848275 192.08586199 38.77685547 192.10986328 C36.93991782 192.11987648 35.10299593 192.13349102 33.26611328 192.15087891 C30.61486911 192.17533422 27.963837 192.18653013 25.3125 192.1953125 C24.50071289 192.20563507 23.68892578 192.21595764 22.85253906 192.22659302 C16.46933313 192.22782892 10.59984254 191.69554948 5.125 188.125 C1.22574018 184.22574018 0.73746272 181.1005146 0.58937073 175.64979553 C0.55111899 174.35912139 0.51286726 173.06844725 0.47345638 171.73866177 C0.44210001 170.32196219 0.41133363 168.90524945 0.38110352 167.48852539 C0.34332285 166.00450241 0.30526744 164.5204864 0.26695347 163.03647709 C-0.1177015 147.21470564 -0.13059251 131.39201513 -0.10139394 115.56656528 C-0.09498227 111.47879138 -0.09454297 107.39101606 -0.09336853 103.30323792 C-0.09030615 95.6226065 -0.08216434 87.94198997 -0.07201904 80.261365 C-0.06069599 71.49172392 -0.05530741 62.72208199 -0.05032361 53.95243537 C-0.03997509 35.96828193 -0.02247858 17.98414218 0 0 Z M38 27 C38 43.5 38 60 38 77 C64.16186564 78.44419049 64.16186564 78.44419049 88.625 69.5625 C93.88405229 63.88825937 95.3878005 58.8892204 95.19921875 51.171875 C94.59689085 44.6053199 92.68759354 40.21082212 87.875 35.625 C74.29572782 24.69216744 54.19394448 27 38 27 Z " fill="#707172" transform="translate(1019,108)"/>
<path d="M0 0 C15.78590955 -0.06951183 31.57176475 -0.12301704 47.35778904 -0.15543652 C54.68787923 -0.17089101 62.01787245 -0.1919533 69.34790039 -0.22631836 C75.73838761 -0.25626427 82.12880457 -0.27558531 88.51936001 -0.28226548 C91.9016575 -0.28616899 95.28375406 -0.29531288 98.66598701 -0.31719017 C102.44614703 -0.33896805 106.22589085 -0.34196668 110.00610352 -0.34057617 C111.12172668 -0.351362 112.23734985 -0.36214783 113.38677979 -0.3732605 C120.58549611 -0.34460879 126.05890854 0.05890854 131.375 5.375 C135.63593101 12.25804241 134 20.03024379 134 28 C107.93 28 81.86 28 55 28 C55 44.5 55 61 55 78 C79.75 78 104.5 78 130 78 C130 87.57 130 97.14 130 107 C105.25 107 80.5 107 55 107 C55 125.15 55 143.3 55 162 C81.73 162 108.46 162 136 162 C136 171.9 136 181.8 136 192 C96.4 192 56.8 192 16 192 C15.96261719 179.99109375 15.92523437 167.9821875 15.88671875 155.609375 C15.85645503 148.01691539 15.82544037 140.42447125 15.79101562 132.83203125 C15.73647493 120.77198669 15.68506465 108.71198516 15.65356445 96.65185547 C15.63061135 87.86945567 15.59724352 79.08716823 15.55129844 70.30485749 C15.52732989 65.65343439 15.50862495 61.00212282 15.50238609 56.35063934 C15.49635162 51.97411981 15.4764114 47.59788577 15.44572449 43.22147179 C15.43691791 41.6138399 15.43322708 40.00617074 15.43499184 38.3985157 C15.4366392 36.20567314 15.41999276 34.01370649 15.39872742 31.82098389 C15.39181397 29.9792415 15.39181397 29.9792415 15.38476086 28.10029221 C14.9681795 24.74359961 14.39579844 23.34953434 12 21 C9.05484348 20.08656104 9.05484348 20.08656104 5.8125 19.75 C3.894375 19.5025 1.97625 19.255 0 19 C0 12.73 0 6.46 0 0 Z " fill="#707172" transform="translate(1176,108)"/>
<path d="M0 0 C-0.56825214 10.40798659 -1.60222605 20.67275755 -3 31 C-7.64312119 30.36717031 -11.77637697 29.12893673 -16.1875 27.5625 C-31.92697914 22.22756862 -50.44446965 19.86074194 -66.44921875 25.65234375 C-71.02813399 28.07152561 -73.71704548 31.43409095 -76 36 C-76.50248963 41.04137134 -76.66494793 45.52555025 -74.5625 50.1875 C-67.49122983 57.94865019 -59.94181139 63.04494251 -50.625 67.8125 C-48.31272404 69.02920343 -46.00153364 70.24797205 -43.69140625 71.46875 C-42.55848145 72.06429687 -41.42555664 72.65984375 -40.25830078 73.2734375 C-21.24536301 83.34832855 -1.67674863 93.78344872 5.34375 115.625 C5.5603125 116.40875 5.776875 117.1925 6 118 C6.26151855 118.93585938 6.26151855 118.93585938 6.52832031 119.890625 C9.60971396 133.67077049 6.84705269 149.33585689 -0.2265625 161.34375 C-11.08571668 177.60856243 -28.14465966 186.48268083 -46.9765625 190.44140625 C-50.99315271 191.18348945 -54.92112404 191.76872353 -59 192 C-60.28003906 192.07927734 -60.28003906 192.07927734 -61.5859375 192.16015625 C-77.69565858 192.6677228 -93.07396279 188.08276712 -108.3828125 183.62109375 C-110.25519467 183.08068184 -112.12758944 182.54031356 -114 182 C-114.79921875 181.76128174 -115.5984375 181.52256348 -116.421875 181.27661133 C-118.25797264 180.75979157 -120.1281321 180.3666985 -122 180 C-127.02872026 183.3143838 -128.88227839 188.56964124 -131 194 C-132.66728484 193.88353525 -134.333818 193.75630239 -136 193.625 C-136.928125 193.55539062 -137.85625 193.48578125 -138.8125 193.4140625 C-142.65805722 192.91451708 -146.25216593 191.99349912 -150 191 C-149.23864611 186.70659664 -148.46417979 182.41565514 -147.6875 178.125 C-147.47416016 176.92101562 -147.26082031 175.71703125 -147.04101562 174.4765625 C-143.28713661 153.85824192 -143.28713661 153.85824192 -137 149 C-136.030625 148.236875 -135.06125 147.47375 -134.0625 146.6875 C-127.55673063 143.25688353 -119.15471333 144.06751961 -112.33520508 146.08325195 C-108.6278231 147.55246907 -104.99286747 149.13861153 -101.375 150.8125 C-90.012688 155.93994586 -79.04164501 160.63964892 -66.375 160.375 C-65.64990234 160.36484863 -64.92480469 160.35469727 -64.17773438 160.34423828 C-54.43068806 160.06332475 -46.52523546 157.35805608 -39 151 C-34.86701691 146.27332873 -33.62691829 141.55039176 -33.7265625 135.40234375 C-34.44625695 129.07931392 -38.12396024 124.06620265 -42.6875 119.81640625 C-48.05539637 115.60006873 -54.08481906 112.37393651 -60 109 C-63.26845362 107.12201082 -66.5353289 105.24130738 -69.80151367 103.359375 C-72.04821277 102.06654878 -74.2969772 100.77730304 -76.5480957 99.4921875 C-94.60615898 89.14432394 -108.48497159 79.71444932 -115 59 C-117.97092506 44.47984969 -115.93258158 29.60491366 -108 17 C-98.22257589 3.37982084 -82.7725089 -3.7834265 -66.75 -7.3125 C-65.1708196 -7.56872463 -63.58699436 -7.79773601 -62 -8 C-61.12859375 -8.12117188 -60.2571875 -8.24234375 -59.359375 -8.3671875 C-38.82266021 -10.66774845 -19.58111389 -5.73308426 0 0 Z " fill="#707172" transform="translate(713,380)"/>
<path d="M0 0 C5.99612327 -0.06903852 11.99085586 -0.12872246 17.98706055 -0.16479492 C20.02486862 -0.17983947 22.06264454 -0.20028012 24.1003418 -0.22631836 C27.03702756 -0.26289247 29.97328351 -0.27976999 32.91015625 -0.29296875 C33.81459976 -0.30845261 34.71904327 -0.32393646 35.65089417 -0.33988953 C41.20758477 -0.34135299 45.17860229 0.13025518 50 3 C53.41032137 7.26573056 54.49886571 10.09539121 54.48101807 15.52999878 C54.48651672 16.82561234 54.49201538 18.12122589 54.49768066 19.45610046 C54.48352673 20.8794288 54.46898753 22.30275335 54.45410156 23.72607422 C54.4529725 25.23432892 54.45360808 26.74258581 54.45587158 28.25083923 C54.4570174 32.33525809 54.43352989 36.41920533 54.40557575 40.50351477 C54.38053984 44.77560365 54.37821838 49.04770381 54.37347412 53.31985474 C54.36105076 61.40522432 54.32823787 69.4903771 54.28807616 77.57565129 C54.23497033 88.50446723 54.21340781 99.43334263 54.19006729 110.3622551 C54.15247595 127.57499907 54.07278103 144.78728556 54 162 C79.41 162 104.82 162 131 162 C131 171.9 131 181.8 131 192 C93.05 192 55.1 192 16 192 C15.95101562 180.14707031 15.90203125 168.29414063 15.8515625 156.08203125 C15.81618859 148.58527904 15.780317 141.08853473 15.7421875 133.59179688 C15.68172329 121.68548354 15.62332555 109.7791851 15.578125 97.87280273 C15.54519888 89.20211692 15.50536418 80.53149519 15.45720994 71.86088008 C15.43195116 67.26924869 15.41016801 62.67765978 15.39665604 58.08597755 C15.3838301 53.76450191 15.36176986 49.44317198 15.33261681 45.12177658 C15.32354522 43.53552386 15.31785177 41.94924767 15.31578636 40.36297035 C15.31246085 38.19691829 15.29697597 36.03127861 15.2784729 33.86531067 C15.27294214 32.65315289 15.26741138 31.44099512 15.26171303 30.19210529 C15.00155351 27.01894809 14.46180363 24.8164395 13 22 C8.78425115 19.52014773 5.07460666 19.63432583 0 19 C0 12.73 0 6.46 0 0 Z " fill="#707172" transform="translate(600,108)"/>
<path d="M0 0 C6.12055431 -0.09211537 12.23867835 -0.17166833 18.359375 -0.21972656 C20.43888525 -0.23977159 22.51833963 -0.26701513 24.59765625 -0.30175781 C27.59649487 -0.35058948 30.59458463 -0.37304028 33.59375 -0.390625 C34.51490601 -0.41127014 35.43606201 -0.43191528 36.38513184 -0.45318604 C42.13484649 -0.45515935 47.49402236 0.11175356 52 4 C54.77508006 8.58373359 55.42723118 12.37748218 55.36076355 17.63095093 C55.36332682 18.37928401 55.3658901 19.12761708 55.36853105 19.89862692 C55.37345555 22.39536802 55.35699851 24.89149861 55.34057617 27.38818359 C55.33972961 29.18214911 55.34020561 30.97611566 55.34190369 32.77008057 C55.34276392 37.63329783 55.32513345 42.49629281 55.30418181 47.35945845 C55.28541985 52.44434957 55.28366495 57.52924586 55.28010559 62.61416626 C55.27078373 72.24007546 55.24616798 81.86588237 55.21605712 91.49174654 C55.18251756 102.45175948 55.16602821 113.41177731 55.15097082 124.37182879 C55.11961857 146.9146223 55.06460467 169.45727558 55 192 C42.46 192 29.92 192 17 192 C16.970271 184.69379517 16.970271 184.69379517 16.93994141 177.23999023 C16.87307705 161.15866459 16.79553645 145.07740358 16.71247292 128.99615383 C16.66236595 119.24476627 16.61592277 109.49338704 16.578125 99.74194336 C16.5451685 91.24190273 16.50531701 82.74192708 16.45720994 74.2419582 C16.43198136 69.74192501 16.41018931 65.24193472 16.39665604 60.7418499 C16.38380265 56.50408622 16.36171296 52.26646993 16.33261681 48.02878761 C16.32356663 46.47562633 16.31785678 44.92244133 16.31578636 43.36925507 C16.31244564 41.24331334 16.29692011 39.11778494 16.2784729 36.9919281 C16.27294214 35.80373694 16.26741138 34.61554579 16.26171303 33.39134884 C15.90274107 28.73969226 15.49362853 24.35784412 11.9375 21.125 C8.11164763 19.51812249 8.11164763 19.51812249 0 19 C0 12.73 0 6.46 0 0 Z " fill="#707172" transform="translate(743,108)"/>
<path d="M0 0 C6.29880204 -0.07430529 12.59734739 -0.12867602 18.89648438 -0.16479492 C21.03813117 -0.17985641 23.17974724 -0.20030972 25.32128906 -0.22631836 C28.40437411 -0.26281728 31.48705038 -0.27975302 34.5703125 -0.29296875 C35.52366486 -0.30845261 36.47701721 -0.32393646 37.45925903 -0.33988953 C42.74167949 -0.34121877 46.43763377 0.02192699 51 3 C54.98048049 7.39225433 55.1440746 11.5445054 55.12025452 17.23222351 C55.12110894 17.97390976 55.12196337 18.71559601 55.12284368 19.47975761 C55.12449438 21.97179961 55.11898379 24.46377471 55.11352539 26.95581055 C55.1132434 28.73948159 55.11340148 30.52315275 55.1139679 32.30682373 C55.11425542 37.15567512 55.10836585 42.00450189 55.10139394 46.85334754 C55.09515302 51.91824707 55.09455601 56.98314714 55.09336853 62.04804993 C55.0902574 71.64214102 55.08204693 81.23622075 55.07201904 90.83030683 C55.06085115 101.75156973 55.05534575 112.67283317 55.05032361 123.59410036 C55.03986415 146.06274133 55.02152136 168.53136672 55 191 C42.46 191 29.92 191 17 191 C16.97812622 183.69379517 16.97812622 183.69379517 16.95581055 176.23999023 C16.90550544 160.15864718 16.83906798 144.07740081 16.76428509 127.99615383 C16.71933285 118.24476134 16.67991684 108.49340532 16.65356445 98.74194336 C16.63057977 90.24187928 16.59717643 81.74193068 16.55129844 73.2419582 C16.5273726 68.7419047 16.50863962 64.24196554 16.50238609 59.7418499 C16.49633236 55.50402886 16.4763221 51.26650032 16.44572449 47.02878761 C16.43694889 45.47563077 16.4332207 43.92243569 16.43499184 42.36925507 C16.43665044 40.24314362 16.41989706 38.11791772 16.39872742 35.9919281 C16.39411845 34.80373694 16.38950949 33.61554579 16.38476086 32.39134884 C15.91886126 28.2848291 14.91037417 25.66315192 13 22 C8.72153168 19.14768778 5.104369 19.39774304 0 19 C0 12.73 0 6.46 0 0 Z " fill="#717273" transform="translate(743,376)"/>
</svg>
