<?xml version="1.0" encoding="UTF-8" standalone="no"?>
<!-- Created with Inkscape (http://www.inkscape.org/) -->

<svg
   width="36.337177mm"
   height="41.222214mm"
   viewBox="0 0 36.337177 41.222214"
   version="1.1"
   id="svg1"
   inkscape:version="1.4.2 (ebf0e940d0, 2025-05-08)"
   sodipodi:docname="advanced-security.svg"
   xmlns:inkscape="http://www.inkscape.org/namespaces/inkscape"
   xmlns:sodipodi="http://sodipodi.sourceforge.net/DTD/sodipodi-0.dtd"
   xmlns="http://www.w3.org/2000/svg"
   xmlns:svg="http://www.w3.org/2000/svg">
  <sodipodi:namedview
     id="namedview1"
     pagecolor="#ffffff"
     bordercolor="#000000"
     borderopacity="0.25"
     inkscape:showpageshadow="2"
     inkscape:pageopacity="0.0"
     inkscape:pagecheckerboard="0"
     inkscape:deskcolor="#d1d1d1"
     inkscape:document-units="mm"
     inkscape:zoom="0.71179153"
     inkscape:cx="33.717738"
     inkscape:cy="181.93529"
     inkscape:window-width="1274"
     inkscape:window-height="1028"
     inkscape:window-x="0"
     inkscape:window-y="0"
     inkscape:window-maximized="0"
     inkscape:current-layer="layer1" />
  <defs
     id="defs1">
    <clipPath
       clipPathUnits="userSpaceOnUse"
       id="clipPath3005">
      <path
         d="M 0,9387.639 H 1440 V 0 H 0 Z"
         transform="translate(-473.76951,-6107.3415)"
         id="path3005" />
    </clipPath>
    <clipPath
       clipPathUnits="userSpaceOnUse"
       id="clipPath3007">
      <path
         d="M 0,9387.639 H 1440 V 0 H 0 Z"
         transform="translate(-410.91301,-6094.0539)"
         id="path3007" />
    </clipPath>
  </defs>
  <g
     inkscape:label="Layer 1"
     inkscape:groupmode="layer"
     id="layer1"
     transform="translate(-96.043752,-100.27707)">
    <path
       id="path3004"
       d="M 0,0 C 1.068,13.809 1.696,28.345 1.727,43.546 1.738,48.97 1.673,54.302 1.539,59.539 -6.124,58.46 -19.984,57.545 -36.092,62.55 -49.303,66.655 -58.795,73.116 -64.44,77.649 -70.086,73.116 -79.578,66.655 -92.789,62.55 c -16.108,-5.005 -29.968,-4.09 -37.631,-3.011 -0.133,-5.237 -0.199,-10.569 -0.188,-15.993 0.031,-15.201 0.659,-29.737 1.727,-43.546 l -0.002,0.099 c 1.145,-8.406 4.225,-22.217 13.566,-36.278 17.096,-25.735 42.997,-33.987 50.877,-36.172 7.879,2.185 33.78,10.437 50.876,36.172 9.341,14.061 12.421,27.872 13.566,36.278"
       style="fill:none;stroke:#ffffff;stroke-width:5;stroke-linecap:butt;stroke-linejoin:miter;stroke-miterlimit:10;stroke-dasharray:none;stroke-opacity:1"
       transform="matrix(0.26458331,0,0,-0.26458331,131.26222,121.67)"
       clip-path="url(#clipPath3005)" />
    <path
       id="path3006"
       d="m 0,0 c 0.23,-2.588 0.46,-5.176 0.69,-7.764 h -4.547 c 0.232,2.587 0.465,5.174 0.698,7.761 -1.708,0.639 -2.924,2.285 -2.924,4.215 0,2.485 2.014,4.499 4.499,4.499 2.485,0 4.5,-2.014 4.5,-4.499 C 2.916,2.285 1.703,0.641 0,0 m -14.402,30.66 c 0,7.068 5.75,12.818 12.818,12.818 7.068,0 12.819,-5.75 12.819,-12.818 V 18.995 H -14.402 Z M 18.624,18.995 H 17.677 V 30.66 c 0,2.598 -0.509,5.121 -1.515,7.498 -0.97,2.294 -2.358,4.354 -4.126,6.121 -1.768,1.768 -3.827,3.157 -6.121,4.127 -2.377,1.005 -4.9,1.515 -7.499,1.515 -2.599,0 -5.121,-0.51 -7.498,-1.515 -2.294,-0.97 -4.354,-2.359 -6.122,-4.127 -1.767,-1.767 -3.156,-3.827 -4.126,-6.121 -1.005,-2.377 -1.515,-4.9 -1.515,-7.498 V 18.995 h -0.947 c -2.728,0 -4.94,-2.212 -4.94,-4.94 v -27.162 c 0,-2.728 2.212,-4.94 4.94,-4.94 h 40.416 c 2.729,0 4.94,2.212 4.94,4.94 v 27.162 c 0,2.728 -2.211,4.94 -4.94,4.94"
       style="fill:#ffffff;fill-opacity:1;fill-rule:nonzero;stroke:none"
       transform="matrix(0.26458331,0,0,-0.26458331,114.63144,125.18568)"
       clip-path="url(#clipPath3007)" />
  </g>
</svg>
