<?xml version="1.0" encoding="UTF-8" standalone="no"?>
<!-- Created with Inkscape (http://www.inkscape.org/) -->

<svg
   width="33.498802mm"
   height="39.687378mm"
   viewBox="0 0 33.498802 39.687378"
   version="1.1"
   id="svg1"
   inkscape:version="1.4.2 (ebf0e940d0, 2025-05-08)"
   sodipodi:docname="hybrid-signatures.svg"
   xmlns:inkscape="http://www.inkscape.org/namespaces/inkscape"
   xmlns:sodipodi="http://sodipodi.sourceforge.net/DTD/sodipodi-0.dtd"
   xmlns="http://www.w3.org/2000/svg"
   xmlns:svg="http://www.w3.org/2000/svg">
  <sodipodi:namedview
     id="namedview1"
     pagecolor="#ffffff"
     bordercolor="#000000"
     borderopacity="0.25"
     inkscape:showpageshadow="2"
     inkscape:pageopacity="0.0"
     inkscape:pagecheckerboard="0"
     inkscape:deskcolor="#d1d1d1"
     inkscape:document-units="mm"
     inkscape:zoom="0.71179153"
     inkscape:cx="63.220758"
     inkscape:cy="75.162457"
     inkscape:window-width="1274"
     inkscape:window-height="1028"
     inkscape:window-x="0"
     inkscape:window-y="0"
     inkscape:window-maximized="0"
     inkscape:current-layer="layer1" />
  <defs
     id="defs1">
    <clipPath
       clipPathUnits="userSpaceOnUse"
       id="clipPath3013">
      <path
         d="M 0,9387.639 H 1440 V 0 H 0 Z"
         transform="translate(-1056.1002,-6184.9904)"
         id="path3013" />
    </clipPath>
    <clipPath
       clipPathUnits="userSpaceOnUse"
       id="clipPath3011">
      <path
         d="M 0,9387.639 H 1440 V 0 H 0 Z"
         transform="translate(-991.14392,-6159.7653)"
         id="path3011" />
    </clipPath>
    <clipPath
       clipPathUnits="userSpaceOnUse"
       id="clipPath3015">
      <path
         d="M 0,9387.639 H 1440 V 0 H 0 Z"
         transform="translate(-1045.5909,-6146.5373)"
         id="path3015" />
    </clipPath>
    <clipPath
       clipPathUnits="userSpaceOnUse"
       id="clipPath3017">
      <path
         d="M 0,9387.639 H 1440 V 0 H 0 Z"
         transform="translate(-1045.5831,-6126.0368)"
         id="path3017" />
    </clipPath>
    <clipPath
       clipPathUnits="userSpaceOnUse"
       id="clipPath3019">
      <path
         d="M 0,9387.639 H 1440 V 0 H 0 Z"
         transform="translate(-1045.5831,-6110.0661)"
         id="path3019" />
    </clipPath>
    <clipPath
       clipPathUnits="userSpaceOnUse"
       id="clipPath3021">
      <path
         d="M 0,9387.639 H 1440 V 0 H 0 Z"
         transform="translate(-1045.5831,-6094.0959)"
         id="path3021" />
    </clipPath>
    <clipPath
       clipPathUnits="userSpaceOnUse"
       id="clipPath3023">
      <path
         d="M 0,9387.639 H 1440 V 0 H 0 Z"
         transform="translate(-1070.0143,-6171.3029)"
         id="path3023" />
    </clipPath>
    <clipPath
       clipPathUnits="userSpaceOnUse"
       id="clipPath3025">
      <path
         d="M 0,9387.639 H 1440 V 0 H 0 Z"
         transform="translate(-993.2239,-6054.2208)"
         id="path3025" />
    </clipPath>
  </defs>
  <g
     inkscape:label="Layer 1"
     inkscape:groupmode="layer"
     id="layer1"
     transform="translate(-88.106253,-128.5875)">
    <path
       id="path3010"
       d="M 0,0 H -15.721 L 0,15.748 Z m 3.895,25 c -0.023,0 -0.023,0.022 -0.046,0.022 -0.344,0.137 -0.702,0.203 -1.06,0.203 -0.093,0 -0.187,0 -0.272,-0.023 C 2.22,25.182 1.948,25.112 1.675,25 1.364,24.863 1.068,24.661 0.818,24.411 L -24.407,-0.814 c -0.296,-0.273 -0.499,-0.635 -0.639,-0.974 -0.109,-0.273 -0.179,-0.565 -0.179,-0.861 -0.023,-0.042 -0.023,-0.089 -0.023,-0.132 0,-0.343 0.07,-0.682 0.202,-0.997 0,-0.024 0.023,-0.047 0.023,-0.071 0.429,-1.04 1.45,-1.717 2.563,-1.717 H 2.789 c 1.535,0 2.781,1.266 2.781,2.785 V 22.444 C 5.57,23.55 4.916,24.571 3.895,25"
       style="fill:#ffffff;fill-opacity:1;fill-rule:nonzero;stroke:none"
       transform="matrix(0.26458331,0,0,-0.26458331,94.786634,135.26165)"
       clip-path="url(#clipPath3011)" />
    <path
       id="path3012"
       d="m 0,0 h -62.393 c -0.024,0 -0.024,-0.023 -0.047,-0.023 -0.272,-0.137 -0.592,-0.339 -0.857,-0.588 l -5.048,-5.045 H 0 c 1.878,0 3.396,-1.515 3.396,-3.392 v -104.641 c 0,-1.877 -1.518,-3.393 -3.396,-3.393 h -81.153 c -1.9,0 -3.396,1.516 -3.396,3.393 v 91.814 l -5.001,-5.002 c -0.289,-0.296 -0.514,-0.635 -0.631,-0.997 -0.024,-0.043 -0.024,-0.089 -0.024,-0.132 v -85.683 c 0,-4.998 4.051,-9.049 9.052,-9.049 H 0 c 5.001,0 9.053,4.051 9.053,9.049 V -9.048 C 9.053,-4.047 5.001,0 0,0"
       style="fill:#ffffff;fill-opacity:1;fill-rule:nonzero;stroke:none"
       transform="matrix(0.26458331,0,0,-0.26458331,111.97299,128.5875)"
       clip-path="url(#clipPath3013)" />
    <path
       id="path3014"
       d="M 0,0 C 1.254,0 2.259,-1.013 2.259,-2.263 2.259,-3.514 1.254,-4.526 0,-4.526 h -38.508 c -1.254,0 -2.267,1.012 -2.267,2.263 0,1.25 1.013,2.263 2.267,2.263"
       style="fill:#ffffff;fill-opacity:1;fill-rule:nonzero;stroke:none"
       transform="matrix(0.26458331,0,0,-0.26458331,109.1924,138.76155)"
       clip-path="url(#clipPath3015)" />
    <path
       id="path3016"
       d="m 0,0 h -59.666 c -1.247,0 -2.259,1.013 -2.259,2.263 0,1.246 1.012,2.259 2.259,2.259 H 0 C 1.255,4.522 2.26,3.509 2.26,2.263 2.26,1.013 1.255,0 0,0"
       style="fill:#ffffff;fill-opacity:1;fill-rule:nonzero;stroke:none"
       transform="matrix(0.26458331,0,0,-0.26458331,109.19034,144.18564)"
       clip-path="url(#clipPath3017)" />
    <path
       id="path3018"
       d="m 0,0 h -59.666 c -1.247,0 -2.259,1.013 -2.259,2.264 0,1.246 1.012,2.262 2.259,2.262 H 0 C 1.255,4.526 2.26,3.51 2.26,2.264 2.26,1.013 1.255,0 0,0"
       style="fill:#ffffff;fill-opacity:1;fill-rule:nonzero;stroke:none"
       transform="matrix(0.26458331,0,0,-0.26458331,109.19034,148.41123)"
       clip-path="url(#clipPath3019)" />
    <path
       id="path3020"
       d="m 0,0 h -59.666 c -1.247,0 -2.259,1.013 -2.259,2.263 0,1.251 1.012,2.263 2.259,2.263 H 0 C 1.255,4.526 2.26,3.514 2.26,2.263 2.26,1.013 1.255,0 0,0"
       style="fill:#ffffff;fill-opacity:1;fill-rule:nonzero;stroke:none"
       transform="matrix(0.26458331,0,0,-0.26458331,109.19034,152.63668)"
       clip-path="url(#clipPath3021)" />
    <path
       id="path3022"
       d="M 0,0 H -10.518 V -5.656 H 0 c 1.877,0 3.396,-1.515 3.396,-3.393 v -104.64 c 0,-1.877 -1.519,-3.393 -3.396,-3.393 h -81.176 c -1.877,0 -3.389,1.516 -3.389,3.393 v 10.295 h -5.656 v -10.295 c 0,-5.002 4.043,-9.049 9.045,-9.049 H 0 c 5.001,0 9.052,4.047 9.052,9.049 V -9.049 C 9.052,-4.047 5.001,0 0,0"
       style="fill:#ffffff;fill-opacity:1;fill-rule:nonzero;stroke:none"
       transform="matrix(0.26458331,0,0,-0.26458331,115.65442,132.20898)"
       clip-path="url(#clipPath3023)" />
    <path
       id="path3024"
       d="m 0,0 v -5.656 -4.526 c 0,-5.002 4.051,-9.048 9.052,-9.048 h 81.176 c 5.002,0 9.053,4.046 9.053,9.048 v 104.64 c 0,5.002 -4.051,9.049 -9.053,9.049 h -4.386 -5.655 v -5.656 h 5.655 4.386 c 1.878,0 3.397,-1.515 3.397,-3.393 v -104.64 c 0,-1.878 -1.519,-3.393 -3.397,-3.393 H 9.052 c -1.877,0 -3.388,1.515 -3.388,3.393 V -5.656 0 Z"
       style="fill:#ffffff;fill-opacity:1;fill-rule:nonzero;stroke:none"
       transform="matrix(0.26458331,0,0,-0.26458331,95.33696,163.18694)"
       clip-path="url(#clipPath3025)" />
  </g>
</svg>
