<?xml version="1.0" encoding="UTF-8" standalone="no"?>
<!-- Created with Inkscape (http://www.inkscape.org/) -->

<svg
   width="46.433475mm"
   height="39.687496mm"
   viewBox="0 0 46.433475 39.687496"
   version="1.1"
   id="svg1"
   inkscape:version="1.4.2 (ebf0e940d0, 2025-05-08)"
   sodipodi:docname="drawing.svg"
   xmlns:inkscape="http://www.inkscape.org/namespaces/inkscape"
   xmlns:sodipodi="http://sodipodi.sourceforge.net/DTD/sodipodi-0.dtd"
   xmlns="http://www.w3.org/2000/svg"
   xmlns:svg="http://www.w3.org/2000/svg">
  <sodipodi:namedview
     id="namedview1"
     pagecolor="#ffffff"
     bordercolor="#000000"
     borderopacity="0.25"
     inkscape:showpageshadow="2"
     inkscape:pageopacity="0.0"
     inkscape:pagecheckerboard="0"
     inkscape:deskcolor="#d1d1d1"
     inkscape:document-units="mm"
     inkscape:zoom="0.71179153"
     inkscape:cx="20.371133"
     inkscape:cy="208.6285"
     inkscape:window-width="1274"
     inkscape:window-height="1028"
     inkscape:window-x="0"
     inkscape:window-y="0"
     inkscape:window-maximized="0"
     inkscape:current-layer="layer1" />
  <defs
     id="defs1">
    <clipPath
       clipPathUnits="userSpaceOnUse"
       id="clipPath2983">
      <path
         d="M 0,9387.639 H 1440 V 0 H 0 Z"
         transform="translate(-327.63151,-7291.0686)"
         id="path2983" />
    </clipPath>
  </defs>
  <g
     inkscape:label="Layer 1"
     inkscape:groupmode="layer"
     id="layer1"
     transform="translate(-99.747919,-93.397922)">
    <path
       id="path2982"
       d="M 0,0 V 22.515 L 27.984,-5.469 H 5.469 C 2.46,-5.469 0,-3.008 0,0 m -94.585,-74.146 c -5.441,7.266 -25.621,6.135 -25.621,26.284 v 29.084 c 7.572,-0.756 15.168,5.918 20.434,11.664 h 10.374 c 5.267,-5.746 12.862,-12.42 20.435,-11.664 v -29.084 c 0,-20.149 -20.181,-19.018 -25.622,-26.284 m 1.306,10.131 c 1.601,1.005 3.51,1.836 5.356,2.64 1.502,0.654 3.055,1.331 4.483,2.115 5.409,2.97 7.717,6.815 7.717,12.854 v 19.631 c 0,1.138 -0.782,2.128 -1.89,2.391 -4.02,0.953 -8.375,3.815 -12.944,8.506 -0.462,0.474 -1.097,0.741 -1.76,0.741 h -4.536 c -0.662,0 -1.297,-0.267 -1.76,-0.741 -4.569,-4.691 -8.924,-7.553 -12.944,-8.506 -1.107,-0.263 -1.89,-1.253 -1.89,-2.391 v -19.631 c 0,-6.039 2.309,-9.884 7.718,-12.854 1.427,-0.784 2.98,-1.461 4.483,-2.115 1.846,-0.804 3.754,-1.635 5.355,-2.64 0.4,-0.251 0.853,-0.376 1.306,-0.376 0.454,0 0.906,0.125 1.306,0.376 m 3.393,7.145 c -1.562,-0.681 -3.165,-1.378 -4.699,-2.218 -1.534,0.84 -3.137,1.537 -4.699,2.218 -1.466,0.639 -2.85,1.241 -4.08,1.917 -3.864,2.122 -5.169,4.279 -5.169,8.547 v 17.785 c 4.154,1.411 8.335,4.233 12.705,8.57 h 2.487 c 4.369,-4.337 8.55,-7.159 12.704,-8.57 v -17.785 c 0,-4.268 -1.304,-6.425 -5.169,-8.547 -1.23,-0.676 -2.614,-1.278 -4.08,-1.917 m 4.387,19.096 c 0.959,0.959 0.959,2.514 0,3.475 -0.959,0.96 -2.515,0.96 -3.475,0 l -7.447,-7.448 -3.775,3.775 c -0.96,0.959 -2.516,0.959 -3.475,0 -0.959,-0.96 -0.959,-2.516 0,-3.475 l 5.512,-5.512 c 0.48,-0.48 1.109,-0.72 1.738,-0.72 0.628,0 1.257,0.24 1.737,0.72 z m 75.433,-73.46 h 56.063 c -0.255,2.885 -2.693,5.168 -5.642,5.168 H -4.423 c -2.948,0 -5.387,-2.283 -5.643,-5.168 m 57.876,-4.914 h -59.688 c -3.117,0 -5.669,-2.551 -5.669,-5.668 v -5.669 h 71.026 v 5.669 c 0,3.117 -2.551,5.668 -5.669,5.668 m -136.532,9.027 v 31.569 c -0.858,-0.507 -1.541,-1.02 -1.93,-1.539 -0.927,-1.239 -2.385,-1.968 -3.933,-1.968 v -37.745 c 0,-3.609 2.953,-6.562 6.562,-6.562 h 65.563 v 1.55 c 0,1.535 0.331,2.994 0.922,4.313 H -78.34 c -5.725,0 -10.382,4.657 -10.382,10.382 m 18.568,93.199 c -2.637,0 -7.075,1.463 -13.654,8.069 v 22.9 c 0,3.008 2.46,5.468 5.468,5.468 H -4.915 V 0 c 0,-5.725 4.659,-10.382 10.384,-10.382 h 22.515 v -20.08 l -6.836,-36.035 -2.452,0.658 c -0.858,0.23 -1.742,0.346 -2.628,0.346 -1.292,0 -2.536,-0.251 -3.69,-0.7 0.114,0.281 0.177,0.589 0.177,0.91 0,1.358 -1.1,2.457 -2.457,2.457 h -76.019 c -1.358,0 -2.458,-1.099 -2.458,-2.457 0,-1.357 1.1,-2.457 2.458,-2.457 H 9.695 c -1.653,-1.323 -2.9,-3.154 -3.477,-5.303 l -0.115,-0.433 c -0.289,0.033 -0.578,0.052 -0.869,0.052 -2.768,0 -5.268,-1.484 -6.635,-3.778 h -64.52 c -1.358,0 -2.458,-1.1 -2.458,-2.457 0,-1.357 1.1,-2.457 2.458,-2.457 h 62.898 l -1.047,-3.906 c -0.702,-2.622 0.854,-5.316 3.476,-6.019 l 28.578,-7.658 v -1.453 H -4.423 c -5.824,0 -10.565,-4.732 -10.58,-10.554 -0.718,-0.222 -1.403,-0.521 -2.047,-0.883 h -61.29 c -3.008,0 -5.468,2.46 -5.468,5.468 v 33.929 c 0.046,0.02 0.092,0.04 0.138,0.06 6.881,3 16.855,7.355 19.139,19.768 h 74.629 c 1.357,0 2.457,1.1 2.457,2.457 0,1.358 -1.1,2.457 -2.457,2.457 h -74.161 c 0.003,0.197 0.013,0.388 0.013,0.588 v 8.875 h 74.148 c 1.357,0 2.457,1.099 2.457,2.457 0,1.357 -1.1,2.456 -2.457,2.456 H -64.05 v 9.463 h 25.791 c 1.357,0 2.457,1.1 2.457,2.457 0,1.358 -1.1,2.456 -2.457,2.456 H -64.05 v 0.92 c 0,1.388 -0.587,2.712 -1.616,3.643 -0.908,0.822 -2.084,1.271 -3.297,1.271 -0.163,0 -0.325,-0.008 -0.488,-0.025 -0.23,-0.022 -0.466,-0.033 -0.703,-0.033 m 36.992,-8.232 c 0,-1.357 1.1,-2.457 2.457,-2.457 h 0.801 c 1.357,0 2.457,1.1 2.457,2.457 0,1.358 -1.1,2.456 -2.457,2.456 h -0.801 c -1.357,0 -2.457,-1.098 -2.457,-2.456 m -35.217,10.44 c 0,-1.357 1.1,-2.456 2.458,-2.456 h 27.663 c 1.356,0 2.457,1.099 2.457,2.456 0,1.357 -1.101,2.457 -2.457,2.457 h -27.663 c -1.358,0 -2.458,-1.1 -2.458,-2.457 m -20.343,9.463 V 11.7 c -3.284,-0.352 -5.863,-3.151 -5.863,-6.523 v -7.376 h 5.187 c 0.228,0 0.453,-0.022 0.676,-0.052 M 54.52,-33.946 c 4.864,13.925 -18.371,20.151 -21.121,5.659 l -0.821,-4.323 20.49,-5.49 z m -3.077,-8.806 -19.783,5.301 -1.635,-8.616 18.525,-4.963 z M 17.424,-70.586 c -2.802,0.752 -5.709,-0.927 -6.459,-3.729 l -0.094,-0.348 39.97,-10.709 0.093,0.347 c 0.751,2.802 -0.928,5.709 -3.729,6.46 z m 23.84,-1.301 5.661,16.205 -17.817,4.774 -3.2,-16.864 z M 53.211,-91.095 5.956,-78.433 c -1.49,0.4 -3.037,-0.493 -3.435,-1.984 l -1.844,-6.877 52.676,-14.115 1.842,6.877 c 0.4,1.491 -0.492,3.038 -1.984,3.437"
       style="fill:#ffffff;fill-opacity:1;fill-rule:evenodd;stroke:none"
       transform="matrix(0.26458331,0,0,-0.26458331,131.55242,99.355015)"
       clip-path="url(#clipPath2983)" />
  </g>
</svg>
