<?xml version="1.0" encoding="UTF-8" standalone="no"?>
<!-- Created with Inkscape (http://www.inkscape.org/) -->

<svg
   width="40.205803mm"
   height="40.283531mm"
   viewBox="0 0 40.205803 40.283531"
   version="1.1"
   id="svg1"
   inkscape:version="1.4.2 (ebf0e940d0, 2025-05-08)"
   sodipodi:docname="realtime-monitoring.svg"
   xmlns:inkscape="http://www.inkscape.org/namespaces/inkscape"
   xmlns:sodipodi="http://sodipodi.sourceforge.net/DTD/sodipodi-0.dtd"
   xmlns="http://www.w3.org/2000/svg"
   xmlns:svg="http://www.w3.org/2000/svg">
  <sodipodi:namedview
     id="namedview1"
     pagecolor="#ffffff"
     bordercolor="#000000"
     borderopacity="0.25"
     inkscape:showpageshadow="2"
     inkscape:pageopacity="0.0"
     inkscape:pagecheckerboard="0"
     inkscape:deskcolor="#d1d1d1"
     inkscape:document-units="mm"
     inkscape:zoom="0.71179153"
     inkscape:cx="150.32491"
     inkscape:cy="312.59153"
     inkscape:window-width="1274"
     inkscape:window-height="1028"
     inkscape:window-x="0"
     inkscape:window-y="0"
     inkscape:window-maximized="0"
     inkscape:current-layer="layer1" />
  <defs
     id="defs1">
    <clipPath
       clipPathUnits="userSpaceOnUse"
       id="clipPath3286">
      <path
         d="M 0,9387.639 H 1440 V 0 H 0 Z"
         transform="translate(-458.85071,-5332.275)"
         id="path3286" />
    </clipPath>
    <clipPath
       clipPathUnits="userSpaceOnUse"
       id="clipPath3290">
      <path
         d="M 0,9387.639 H 1440 V 0 H 0 Z"
         transform="translate(-414.96111,-5280.1427)"
         id="path3290" />
    </clipPath>
  </defs>
  <g
     inkscape:label="Layer 1"
     inkscape:groupmode="layer"
     id="layer1"
     transform="translate(-65.087499,-65.616665)">
    <path
       id="path3285"
       d="m 0,0 0.377,0.181 c 0.134,0.063 0.26,0.15 0.378,0.252 0.385,0.354 2.045,1.99 4.979,4.916 2.116,2.1 4.523,3.028 7.22,2.776 2.746,-0.259 4.279,-1.762 4.586,-4.522 0.543,-4.79 1.148,-9.565 1.801,-14.324 0.527,-3.783 0.842,-6.347 0.936,-7.7 0.244,-3.484 0.504,-6.096 0.779,-7.834 0.039,-0.244 0.039,-0.495 0,-0.731 -0.519,-3.249 -2.297,-5.278 -5.325,-6.104 -0.669,-0.181 -2.021,-0.181 -4.074,-0.016 -3.493,0.299 -7.016,1.385 -10.123,1.55 -3.563,0.189 -7.347,1.133 -10.815,1.392 -2.313,0.173 -4.484,0.881 -6.159,1.313 -5.687,1.495 -5.238,8.173 -1.746,11.933 2.942,3.169 4.869,5.01 5.773,5.537 0.275,0.157 0.441,0.472 0.409,0.794 -0.11,1.267 -0.747,2.305 -1.911,3.115 -15.173,10.579 -31.981,14.095 -50.426,10.563 -1.298,-0.243 -3.838,-1.046 -7.622,-2.399 -10.657,-3.791 -20.041,-11.358 -26.915,-20.285 -8.527,-11.067 -12.192,-24.705 -11.94,-38.588 0.047,-2.454 0.236,-4.475 0.558,-6.072 0.464,-2.266 0.567,-5.018 1.487,-7.968 1.046,-3.342 1.573,-5.057 1.597,-5.144 0.314,-1.439 0.983,-3.091 2.013,-4.955 2.871,-5.239 4.719,-8.401 5.537,-9.486 7.559,-10.005 17.061,-17.367 28.513,-22.094 1.463,-0.606 3.178,-1.164 5.144,-1.683 9.942,-2.612 19.577,-3.139 28.481,-0.74 9.077,2.454 17.564,6.875 25.453,13.261 3.563,2.879 6.78,6.332 9.666,10.352 3.335,4.664 6.482,9.564 8.503,15.259 2.352,6.615 3.602,13.222 3.76,19.805 0.023,1.022 0.346,2.556 0.959,4.601 0.74,2.446 2.399,3.634 4.971,3.555 4.507,-0.133 6.828,-2.343 6.945,-6.614 0.166,-5.916 -0.464,-11.46 -1.887,-16.636 -1.447,-5.262 -3.437,-11.893 -6.308,-17.076 -4.004,-7.252 -8.652,-13.552 -13.93,-18.909 -10.013,-10.138 -22.267,-16.816 -36.763,-20.017 -1.133,-0.252 -5.42,-0.708 -12.853,-1.369 -4.609,-0.401 -7.842,0.519 -12.459,0.881 -1.557,0.118 -3.201,0.409 -4.939,0.865 -6.521,1.723 -12.121,3.791 -16.809,6.206 -17.17,8.849 -29.023,22.086 -35.56,39.705 -2.32,6.253 -4.011,13.45 -5.073,21.591 -0.464,3.587 -0.472,6.937 -0.008,10.06 0.755,5.097 1.337,9.635 2.627,14.354 2.604,9.604 6.694,17.965 12.263,25.075 5.765,7.355 12.498,13.458 20.214,18.319 8.219,5.176 17.925,8.409 29.11,9.699 0.928,0.11 4.137,0.235 9.627,0.377 5.546,0.142 11.059,-0.519 16.534,-1.982 C -21.78,12.184 -11.948,7.284 -2.95,0.323 -2.108,-0.33 -0.968,-0.456 0,0 Z"
       style="fill:none;stroke:#ffffff;stroke-width:5;stroke-linecap:butt;stroke-linejoin:miter;stroke-miterlimit:10;stroke-dasharray:none;stroke-opacity:1"
       transform="matrix(0.26458331,0,0,-0.26458331,98.336104,70.786569)"
       clip-path="url(#clipPath3286)" />
    <path
       id="path3289"
       d="m 0,0 c 0.008,-0.362 0.15,-0.708 0.401,-0.976 3.721,-3.971 9.447,-10.028 17.194,-18.176 4.657,-4.901 -3.901,-12.853 -9.407,-8.141 -2.415,2.068 -4.114,4.625 -6.308,6.843 -4.405,4.444 -7.134,7.141 -8.18,8.093 -0.889,0.803 -1.778,1.786 -2.667,2.942 -2.304,3.013 -3.138,4.452 -3.122,7.983 0.071,14.072 0.071,22.267 0,24.58 -0.032,1.093 0.094,2.155 0.377,3.193 0.071,0.252 0.189,0.496 0.339,0.716 1.502,2.155 3.515,2.958 6.025,2.415 4.239,-0.92 5.136,-2.926 5.096,-7.402 C -0.307,15.771 -0.228,8.416 0,0 Z"
       style="fill:none;stroke:#ffffff;stroke-width:5;stroke-linecap:butt;stroke-linejoin:miter;stroke-miterlimit:10;stroke-dasharray:none;stroke-opacity:1"
       transform="matrix(0.26458331,0,0,-0.26458331,86.723649,84.579899)"
       clip-path="url(#clipPath3290)" />
  </g>
</svg>
