<?xml version="1.0" encoding="UTF-8"?>
<svg version="1.1" xmlns="http://www.w3.org/2000/svg" width="369" height="162">
<path d="M0 0 C2.10358381 1.54262813 2.84054159 2.68108317 4 5 C6.04177984 31.24189173 -4.61658789 58.42488184 -19 80 C-18.72590828 88.6022633 -17.21773908 98.40506771 -13 106 C-11.515 106.495 -11.515 106.495 -10 107 C-5.05695908 98.89695341 -0.89459819 90.67618286 2.9375 82 C6.96167015 73.07549529 10.99812242 64.78074732 17 57 C17.56589844 56.24460938 18.13179688 55.48921875 18.71484375 54.7109375 C19.13894531 54.14632812 19.56304687 53.58171875 20 53 C22.97850904 53.31912597 24.06711428 54.06167258 26.3125 56.125 C28.50692117 59.86364347 27.86132692 61.84997028 27 66 C27.33 66.66 27.66 67.32 28 68 C30.45739853 67.61721736 31.73141129 67.2688923 33.51196289 65.48632812 C37.73224089 59.58516064 41.29081474 53.427709 44.76757812 47.06640625 C52.93546429 32.52214719 52.93546429 32.52214719 59.9375 30.5 C61.4534375 30.2525 61.4534375 30.2525 63 30 C63.3125 33.3125 63.3125 33.3125 63 37 C61.90365234 37.62648438 61.90365234 37.62648438 60.78515625 38.265625 C56.97702637 40.63702706 55.37107177 43.63054601 53.125 47.4375 C52.69300293 48.14817627 52.26100586 48.85885254 51.81591797 49.59106445 C48.64794385 54.82615638 45.5719718 60.11712547 42.5703125 65.44921875 C37.54574033 73.61102379 37.54574033 73.61102379 33 75 C28.86345685 75.55552749 26.02588768 75.78291428 22.625 73.1875 C21.36704087 71.49409348 20.17015276 69.75522914 19 68 C18.00067139 69.89677339 17.00145372 71.79360528 16.00268555 73.69067383 C15.1157062 75.37456797 14.22782794 77.05798889 13.33911133 78.7409668 C10.88725467 83.38971436 8.45688878 88.04792683 6.0625 92.7265625 C5.58208252 93.65960205 5.10166504 94.5926416 4.60668945 95.55395508 C3.67990852 97.35538252 2.75890415 99.15979684 1.84448242 100.9675293 C-4.43512298 113.12977387 -4.43512298 113.12977387 -10.5 115.1875 C-14 115 -14 115 -16.6875 113.125 C-22.07360909 105.8464742 -24.0480993 97.73919178 -26 89 C-26.49628906 89.64066406 -26.99257812 90.28132813 -27.50390625 90.94140625 C-31.7170292 96.30574306 -36.03806452 101.31717339 -41 106 C-37.52805786 116.30261092 -28.24413256 124.75681836 -19 130 C-14.14097375 132.28076742 -9.27547961 133.07112639 -4 132 C10.45241685 126.70002064 19.48809407 118.76146471 26.05078125 104.7578125 C26.36402344 104.07460937 26.67726563 103.39140625 27 102.6875 C28.97066584 98.71399419 31.17750179 96.38004605 35 94 C39.61481891 92.64418641 43.12544593 92.75220968 47.75 94.0625 C52.01805801 96.6069192 54.74740764 99.49481528 57 104 C57.59106487 109.68331608 57.27243416 114.14777003 54 119 C50.29100392 122.34714281 47.79603113 124.05173803 42.8515625 124.359375 C30.1703705 125.28667034 19.41191093 127.06711548 9 135 C8.030625 135.680625 7.06125 136.36125 6.0625 137.0625 C1.03353399 141.32790572 -2.20545362 147.63660173 -5.2734375 153.38671875 C-7.27893896 157.02757879 -8.89423462 159.37583622 -12.75 161.125 C-17.30088147 162.44122848 -21.77439382 162.19245994 -26 160 C-30.35869476 155.71845028 -31.86000997 152.07216272 -32.9375 146.0625 C-35.4482394 134.02564275 -39.45008674 122.87914182 -47 113 C-51.22501066 115.34722815 -55.27881883 117.83570775 -59.3125 120.5 C-70.98991935 128 -70.98991935 128 -77 128 C-77.495 125.03 -77.495 125.03 -78 122 C-77.18378174 121.58488159 -77.18378174 121.58488159 -76.35107422 121.16137695 C-73.85495902 119.88625113 -71.36501504 118.59949458 -68.875 117.3125 C-68.0190625 116.87744141 -67.163125 116.44238281 -66.28125 115.99414062 C-61.32569864 113.42106588 -57.13323489 110.76056617 -53 107 C-58.29824487 96.83602004 -70.16903245 90.96060892 -80.17431641 86.21972656 C-85.04427462 83.83458119 -87.85752293 81.45184251 -91 77 C-93.07153537 70.78539389 -93.13339655 63.4411618 -90.375 57.5 C-82.57743363 49.2920354 -82.57743363 49.2920354 -76.51171875 48.796875 C-69.9863548 48.6885702 -65.36893678 48.85836498 -60.37890625 53.51171875 C-55.02527966 59.22482147 -53.95974752 65.25745603 -53.1875 72.9375 C-52.46178343 78.76064977 -51.26421195 84.15533003 -49.5 89.75 C-49.28625732 90.42925537 -49.07251465 91.10851074 -48.85229492 91.80834961 C-47.84021025 94.88516502 -46.80951408 97.28572888 -45 100 C-42.52980991 97.74938237 -40.28368621 95.43567215 -38 93 C-37.53432617 92.55897949 -37.06865234 92.11795898 -36.58886719 91.66357422 C-30.31334362 85.61436096 -26.79143679 80.09274524 -26.40234375 71.20703125 C-26.3911733 64.92468766 -26.68342875 58.65410622 -26.93847656 52.37792969 C-27.23375277 36.16585965 -22.19845292 15.09330646 -11 3 C-7.30196043 -0.21852952 -4.92461919 -0.53723118 0 0 Z M-4 6 C-15.62434271 15.57298812 -18.67959553 33.29211774 -20.6953125 47.4375 C-21.30896625 54.61252843 -21.14532722 61.80630281 -21 69 C-8.21946136 54.09867329 -1.84499199 29.48985441 -1.734375 10.21484375 C-1.79324076 7.79484175 -1.79324076 7.79484175 -4 6 Z " fill="#CAFBC4" transform="translate(92,0)"/>
<path d="M0 0 C3.72480583 3.0858224 6.53597847 5.92216761 7.23046875 10.8828125 C7.25697764 15.91950097 6.83119202 19.43214416 3.9296875 23.734375 C0.22069142 27.08151781 -2.27428137 28.78611303 -7.21875 29.09375 C-19.899942 30.02104534 -30.65840157 31.80149048 -41.0703125 39.734375 C-42.524375 40.7553125 -42.524375 40.7553125 -44.0078125 41.796875 C-49.03677851 46.06228072 -52.27576612 52.37097673 -55.34375 58.12109375 C-57.34925146 61.76195379 -58.96454712 64.11021122 -62.8203125 65.859375 C-67.37119397 67.17560348 -71.84470632 66.92683494 -76.0703125 64.734375 C-80.42900726 60.45282528 -81.93032247 56.80653772 -83.0078125 50.796875 C-85.36161932 39.51237582 -88.8370464 28.75258531 -96.06640625 19.56640625 C-97.0703125 17.734375 -97.0703125 17.734375 -96.98046875 15.62109375 C-95.80247757 13.17916353 -94.54889053 12.69382456 -92.0703125 11.734375 C-91.55082031 12.38664062 -91.03132813 13.03890625 -90.49609375 13.7109375 C-89.05007775 15.523135 -87.59932283 17.33155851 -86.14453125 19.13671875 C-84.62656057 21.03775547 -83.14882328 22.97111053 -81.6953125 24.921875 C-75.35402678 31.7161097 -68.33504196 35.88522509 -59.1953125 37.359375 C-50.50743885 37.16729616 -40.18005535 31.19052959 -33.9453125 25.359375 C-29.31666184 20.05395036 -25.98967968 13.78921906 -23.0703125 7.421875 C-21.10197388 3.37037801 -18.77916077 1.28420818 -15.0703125 -1.265625 C-10.05001264 -2.92201721 -4.56909424 -2.79318214 0 0 Z " fill="#F5F5F5" transform="translate(142.0703125,95.265625)"/>
<path d="M0 0 C4.26835703 -0.07474224 8.53635674 -0.12887823 12.80517578 -0.16479492 C14.25413661 -0.17978417 15.70305283 -0.20018271 17.15185547 -0.22631836 C34.69223726 -0.53457455 34.69223726 -0.53457455 41.4375 5 C44.48155532 8.89639082 44.53087635 13.24074006 44 18 C42.48202348 21.25280684 40.65384499 23.59890215 38 26 C38.78375 26.5775 39.5675 27.155 40.375 27.75 C43.61493861 30.52709024 44.81317415 32.37194616 45.30078125 36.62109375 C45.34056399 46.18221258 45.34056399 46.18221258 42 50 C38.27473611 53.72526389 35.73910796 53.56522301 30 55 C22.08 55 14.16 55 6 55 C6 38.83 6 22.66 6 6 C4.02 6 2.04 6 0 6 C0 4.02 0 2.04 0 0 Z M18 9 C18 13.62 18 18.24 18 23 C19.5675 22.896875 21.135 22.79375 22.75 22.6875 C23.63171875 22.62949219 24.5134375 22.57148437 25.421875 22.51171875 C28.39082588 21.92242698 29.84928429 21.11618587 32 19 C32.66666667 15.5 32.66666667 15.5 32 12 C29.81474628 9.80973423 28.5125515 9.05824449 25.421875 8.70703125 C24.09929687 8.75923828 24.09929687 8.75923828 22.75 8.8125 C20.39875 8.9053125 20.39875 8.9053125 18 9 Z M18 31 C18 35.95 18 40.9 18 46 C20.35125 46.061875 20.35125 46.061875 22.75 46.125 C23.63171875 46.14820313 24.5134375 46.17140625 25.421875 46.1953125 C28.14922249 45.98869527 29.70111995 45.44896003 32 44 C33.73823201 41.59958437 34.02979994 40.40726587 33.8125 37.4375 C32.93748899 34.81246696 32.13835829 33.71068663 30 32 C27.47524538 30.73762269 25.68799534 30.90143596 22.875 30.9375 C21.26625 30.958125 19.6575 30.97875 18 31 Z " fill="#F5F5F5" transform="translate(231,30)"/>
<path d="M0 0 C3.39466737 -0.23315639 6.78727962 -0.37464625 10.1875 -0.5 C11.14720703 -0.56703125 12.10691406 -0.6340625 13.09570312 -0.703125 C19.96515334 -0.89328279 19.96515334 -0.89328279 22.53662109 1.32641602 C23.92736563 3.47665938 24.94786876 5.66399626 26 8 C27.16623986 10.22041682 28.33862968 12.43760939 29.515625 14.65234375 C30.76869299 17.07650545 32.00903825 19.50712316 33.25 21.9375 C34.20330527 23.80010073 35.15762653 25.66216039 36.11419678 27.52308655 C36.97202532 29.19249501 37.82643689 30.86365798 38.68066406 32.53491211 C39.78171675 34.87830534 39.78171675 34.87830534 41 36 C41.33 24.12 41.66 12.24 42 0 C45.3 0 48.6 0 52 0 C52.02464032 7.52970132 52.04283141 15.05937939 52.05493164 22.58911133 C52.0599737 25.15291757 52.06680714 27.71672091 52.07543945 30.28051758 C52.08751064 33.95655021 52.09322942 37.63254498 52.09765625 41.30859375 C52.10281754 42.46274277 52.10797882 43.61689178 52.11329651 44.80601501 C52.11337204 45.86703934 52.11344757 46.92806366 52.11352539 48.02124023 C52.115746 48.96055893 52.11796661 49.89987762 52.12025452 50.86766052 C52 53 52 53 51 54 C48.81360547 54.07258946 46.62499611 54.08373783 44.4375 54.0625 C42.64119141 54.04896484 42.64119141 54.04896484 40.80859375 54.03515625 C39.88175781 54.02355469 38.95492187 54.01195312 38 54 C37.60731934 53.23969482 37.21463867 52.47938965 36.81005859 51.69604492 C35.32374209 48.81971893 33.83630016 45.94397835 32.34814453 43.06860352 C31.70968666 41.83445451 31.0716514 40.60008676 30.43408203 39.36547852 C29.50670291 37.56986808 28.57770058 35.77510479 27.6484375 33.98046875 C27.09333496 32.90692139 26.53823242 31.83337402 25.96630859 30.72729492 C23.36210844 25.79082562 20.67260358 20.89977323 18 16 C17.67 28.54 17.34 41.08 17 54 C13.7 54 10.4 54 7 54 C6.67 38.49 6.34 22.98 6 7 C3.03 6.505 3.03 6.505 0 6 C0 4.02 0 2.04 0 0 Z " fill="#F5F5F5" transform="translate(289,106)"/>
<path d="M0 0 C0.125 6.625 0.125 6.625 -1 10 C-2.051875 9.67 -3.10375 9.34 -4.1875 9 C-10.98792861 7.33014387 -19.47013834 6.34583004 -26 9.375 C-30.56825392 13.37222218 -33.26497514 18.14986976 -34.41015625 24.1484375 C-34.63384425 29.06957357 -33.39084614 33.73063189 -31 38 C-27.31050003 41.59489741 -23.94786039 43.88237558 -18.765625 44.1953125 C-17.60546875 44.17210937 -16.4453125 44.14890625 -15.25 44.125 C-13.1875 44.08375 -11.125 44.0425 -9 44 C-9 39.71 -9 35.42 -9 31 C-11.64 31 -14.28 31 -17 31 C-17 31.66 -17 32.32 -17 33 C-19.31 33 -21.62 33 -24 33 C-24.36881946 25.5006709 -24.36881946 25.5006709 -22.81445312 23.390625 C-20.34587519 21.4986686 -18.7620622 21.65587742 -15.67578125 21.70703125 C-14.74934814 21.71452393 -13.82291504 21.7220166 -12.8684082 21.72973633 C-11.6949585 21.75704834 -10.52150879 21.78436035 -9.3125 21.8125 C-5.579375 21.874375 -1.84625 21.93625 2 22 C2 31.57 2 41.14 2 51 C-9.5163493 54.8387831 -20.71991361 57.00837345 -32.32421875 51.99609375 C-38.81636842 48.24919594 -43.46694015 43.33327761 -45.875 36.1875 C-48.41908525 26.19287937 -47.09846627 17.85265851 -42.3125 8.8125 C-36.69226151 1.97707481 -30.30391309 -1.4238739 -21.625 -2.8125 C-14.29911388 -3.4866613 -7.11625896 -1.56275166 0 0 Z " fill="#F5F5F5" transform="translate(282,107)"/>
<path d="M0 0 C6.09386539 4.39325179 8.93985407 8.58185248 10.6875 15.9375 C10.99747337 18.24507957 11.26705774 20.55837641 11.5 22.875 C12.30103358 29.37370788 13.82006803 35.28903965 15.9230957 41.48217773 C17.21464677 45.29017023 18.14098296 48.95222409 18.6875 52.9375 C17.0375 54.2575 15.3875 55.5775 13.6875 56.9375 C12.6975 56.091875 11.7075 55.24625 10.6875 54.375 C10.04014893 53.82440918 9.39279785 53.27381836 8.72583008 52.70654297 C7.43148658 51.5831973 6.15522358 50.43839517 4.9050293 49.26611328 C-0.86890337 43.91796868 -7.1724888 40.56263811 -14.15429688 37.03320312 C-20.32836348 33.79872244 -25.00750067 30.85249798 -27.3125 23.9375 C-27.78576956 18.12637047 -28.17247977 12.78976412 -25.6875 7.4375 C-18.24843649 -0.39309317 -10.74083385 -3.44517312 0 0 Z " fill="#F5F5F5" transform="translate(27.3125,50.0625)"/>
<path d="M0 0 C3.9998593 -0.08783475 7.99946704 -0.14067102 12 -0.1875 C13.12535156 -0.21263672 14.25070312 -0.23777344 15.41015625 -0.26367188 C23.03558711 -0.33056162 29.37825181 -0.06455616 35.4375 5.0625 C39.04331407 9.53370945 38.43957028 14.47739888 38 20 C36.30287527 24.28747299 34.05671104 25.91682406 30 28 C30.31670654 28.46801025 30.63341309 28.93602051 30.9597168 29.41821289 C34.3136051 34.54935383 36.68444878 39.70162685 38.8125 45.4375 C39.27946289 46.65856445 39.27946289 46.65856445 39.75585938 47.90429688 C42 53.81797734 42 53.81797734 42 55 C37.71 55 33.42 55 29 55 C28.51789063 53.73542969 28.03578125 52.47085938 27.5390625 51.16796875 C26.90123397 49.50773861 26.26320255 47.8475864 25.625 46.1875 C25.30789063 45.35412109 24.99078125 44.52074219 24.6640625 43.66210938 C24.3546875 42.85966797 24.0453125 42.05722656 23.7265625 41.23046875 C23.44377441 40.49207764 23.16098633 39.75368652 22.86962891 38.99291992 C21.96068804 36.75076151 21.96068804 36.75076151 20 34 C18.04614933 33.21011855 18.04614933 33.21011855 15.875 32.8125 C14.59625 32.544375 13.3175 32.27625 12 32 C12 37.28 12 42.56 12 48 C13.65 48.33 15.3 48.66 17 49 C17 50.98 17 52.96 17 55 C14.70839681 55.02692484 12.41670454 55.04636124 10.125 55.0625 C8.84882813 55.07410156 7.57265625 55.08570313 6.2578125 55.09765625 C3 55 3 55 1 54 C0.00706191 51.02118573 -0.12119785 49.08512761 -0.11352539 45.9777832 C-0.11344986 44.95695145 -0.11337433 43.93611969 -0.11329651 42.88435364 C-0.10813522 41.78427475 -0.10297394 40.68419586 -0.09765625 39.55078125 C-0.0962413 38.4230278 -0.09482635 37.29527435 -0.09336853 36.13334656 C-0.0877647 32.52637088 -0.07521153 28.91945696 -0.0625 25.3125 C-0.05748549 22.86914152 -0.0529225 20.42578207 -0.04882812 17.98242188 C-0.03779403 11.98826013 -0.02105215 5.99413448 0 0 Z M12 9 C12 13.29 12 17.58 12 22 C18.74773644 22.28834762 18.74773644 22.28834762 25 20 C27.26142258 17.25305475 27.26142258 17.25305475 26.875 14.5 C25.79166475 11.40475644 24.79216709 10.66474567 22 9 C19.41118198 8.63965477 19.41118198 8.63965477 16.75 8.8125 C14.39875 8.9053125 14.39875 8.9053125 12 9 Z " fill="#F5F5F5" transform="translate(286,30)"/>
<path d="M0 0 C5.07198888 -0.07413521 10.14366268 -0.12859451 15.21606445 -0.16479492 C16.94170627 -0.17988516 18.66730972 -0.20035975 20.39282227 -0.22631836 C22.87265488 -0.26269209 25.35198064 -0.27972359 27.83203125 -0.29296875 C28.60400345 -0.30845261 29.37597565 -0.32393646 30.17134094 -0.33988953 C33.11106858 -0.34081403 35.41845743 -0.33070599 38.01049805 1.14331055 C39 3 39 3 39 9 C31.74 9 24.48 9 17 9 C17 13.29 17 17.58 17 22 C23.93 22 30.86 22 38 22 C38 24.97 38 27.94 38 31 C31.07 31 24.14 31 17 31 C17 35.95 17 40.9 17 46 C24.26 46 31.52 46 39 46 C39 48.97 39 51.94 39 55 C27.78 55 16.56 55 5 55 C4.67 39.16 4.34 23.32 4 7 C2.68 6.67 1.36 6.34 0 6 C0 4.02 0 2.04 0 0 Z " fill="#F5F5F5" transform="translate(330,30)"/>
<path d="M0 0 C-0.33 2.97 -0.66 5.94 -1 9 C-1.94875 8.835 -2.8975 8.67 -3.875 8.5 C-12.84320281 7.14693298 -12.84320281 7.14693298 -21 10 C-20.85099347 12.40830589 -20.85099347 12.40830589 -20 15 C-17.99572597 16.69071883 -17.99572597 16.69071883 -15.4375 17.9375 C-1.39063392 25.79490291 -1.39063392 25.79490291 2 33 C2.96396395 37.92998705 2.42137485 41.90477697 0 46.3125 C-3.54242773 51.27981486 -7.64421917 53.24612724 -13.50390625 54.5625 C-21.05862355 55.61818102 -27.72915011 54.04601022 -35 52 C-35.66 52.99 -36.32 53.98 -37 55 C-40.125 55.1875 -40.125 55.1875 -43 55 C-42.88490339 53.58249437 -42.75746342 52.16598831 -42.625 50.75 C-42.55539063 49.96109375 -42.48578125 49.1721875 -42.4140625 48.359375 C-41.9787895 45.87914019 -41.31630309 44.14017625 -40 42 C-36.92009655 40.46004827 -34.41257239 40.77622476 -31 41 C-29.88625 41.495 -28.7725 41.99 -27.625 42.5 C-23.25911621 44.3065726 -19.66610484 44.7026181 -15 44 C-12.4810733 42.68236671 -12.4810733 42.68236671 -11 41 C-11.27609798 37.6868242 -11.62598907 36.33708846 -14.13671875 34.07421875 C-18.25324671 31.09212278 -22.63687707 28.63117945 -27.0390625 26.09765625 C-30.14304575 23.8986602 -31.48956009 22.45990042 -33 19 C-33.83110788 13.85611609 -33.58612635 9.34320621 -31.5 4.5625 C-23.41216953 -3.72752623 -10.3548193 -5.17740965 0 0 Z " fill="#F5F5F5" transform="translate(201,107)"/>
<path d="M0 0 C2.29141286 -0.05384521 4.58318188 -0.09272087 6.875 -0.125 C8.78925781 -0.15980469 8.78925781 -0.15980469 10.7421875 -0.1953125 C14 0 14 0 16 2 C16.24050903 3.91091919 16.24050903 3.91091919 16.22705078 6.26611328 C16.22689972 7.14687531 16.22674866 8.02763733 16.22659302 8.93508911 C16.21627045 9.88721283 16.20594788 10.83933655 16.1953125 11.8203125 C16.1924826 12.79410858 16.18965271 13.76790466 16.18673706 14.77120972 C16.17551913 17.88926349 16.1504117 21.00703268 16.125 24.125 C16.11497228 26.23567294 16.10584607 28.34635038 16.09765625 30.45703125 C16.07727392 35.63821936 16.03812828 40.81879018 16 46 C23.26 46 30.52 46 38 46 C38 48.97 38 51.94 38 55 C27.11 55 16.22 55 5 55 C4.67 39.49 4.34 23.98 4 8 C2.68 7.34 1.36 6.68 0 6 C0 4.02 0 2.04 0 0 Z " fill="#F4F4F4" transform="translate(168,30)"/>
<path d="M0 0 C2.10353495 -0.0810206 4.20795952 -0.13919907 6.3125 -0.1875 C7.48425781 -0.22230469 8.65601563 -0.25710937 9.86328125 -0.29296875 C13 0 13 0 14.67475891 1.19868469 C16.4512105 3.61330152 16.36224227 5.13131355 16.34057617 8.11401367 C16.34034958 9.15486618 16.34012299 10.19571869 16.33988953 11.26811218 C16.32440567 12.39006485 16.30892181 13.51201752 16.29296875 14.66796875 C16.28872391 15.81791824 16.28447906 16.96786774 16.28010559 18.15266418 C16.26329189 21.83117941 16.22563377 25.50914992 16.1875 29.1875 C16.17245669 31.67902856 16.15876767 34.17056568 16.14648438 36.66210938 C16.1133794 42.77494997 16.06157774 48.88738258 16 55 C12.04 55 8.08 55 4 55 C3.67 39.16 3.34 23.32 3 7 C2.01 6.67 1.02 6.34 0 6 C0 4.02 0 2.04 0 0 Z " fill="#F5F5F5" transform="translate(209,30)"/>
<path d="M0 0 C2.29141286 -0.05384521 4.58318188 -0.09272087 6.875 -0.125 C8.78925781 -0.15980469 8.78925781 -0.15980469 10.7421875 -0.1953125 C14 0 14 0 16 2 C16.24050903 4.21463013 16.24050903 4.21463013 16.22705078 7.00048828 C16.22689972 8.04141632 16.22674866 9.08234436 16.22659302 10.15481567 C16.21627045 11.28192963 16.20594788 12.40904358 16.1953125 13.5703125 C16.1924826 14.72167694 16.18965271 15.87304138 16.18673706 17.05929565 C16.17551408 20.74796812 16.15040556 24.43640053 16.125 28.125 C16.11497294 30.62109025 16.10584662 33.1171843 16.09765625 35.61328125 C16.0755678 41.74228044 16.04102343 47.87109948 16 54 C12.04 54 8.08 54 4 54 C3.67 38.49 3.34 22.98 3 7 C2.01 6.67 1.02 6.34 0 6 C0 4.02 0 2.04 0 0 Z " fill="#F5F5F5" transform="translate(209,106)"/>
</svg>
