<svg xmlns="http://www.w3.org/2000/svg" width="512" height="512" fill="none"><path fill="#EEE" d="M503.2 322.8q8.7-32 8.8-66.8l-8.8-66.8a255 255 0 0 0-28.8-66.8l-59-66.7A255 255 0 0 0 256 0h-.2A255 255 0 0 0 96.6 55.7l-59 66.7a255 255 0 0 0-28.8 66.8L0 256v.1q0 34.6 8.8 66.7l28.8 66.8a257 257 0 0 0 59 66.7L256 512l159.4-55.7a257 257 0 0 0 59-66.7z"/><path fill="var(--flag-palette-bright-red, #d80027)" d="M503.2 189.2q8.7 32 8.8 66.8H0q0-34.7 8.8-66.8zM415.4 55.7a257 257 0 0 1 59 66.7H37.6a257 257 0 0 1 59-66.7zm59 333.9q19-31 28.8-66.8H8.8a255 255 0 0 0 28.8 66.8zm-59 66.7H96.6A255 255 0 0 0 255.8 512h.4a255 255 0 0 0 159.2-55.7"/><path fill="var(--flag-palette-blue, #0052b4)" d="M0 245.6A256 256 0 0 1 256 0v256H0z"/><path fill="#EEE" fill-rule="evenodd" d="M109.5 46a256 256 0 0 1 26.2-16l1 3h27.8L142 49.2l8.7 26.6L128 59.5l-22.6 16.4 8.6-26.6zm-80 90.4q9-16.7 20.1-32l3.8 11.7h28l-22.7 16.4 8.7 26.6-22.6-16.4L22.2 159zm181.7-130 8.6 26.5h28L225 49.3l8.7 26.6-22.6-16.4-22.6 16.4 8.7-26.6L174.7 33h27.9zM128 89.6l8.6 26.5h28l-22.7 16.4 8.7 26.6-22.6-16.4-22.6 16.4 8.6-26.6-22.5-16.4h27.9zm91.8 26.5-8.6-26.5-8.6 26.5h-28l22.7 16.4-8.7 26.6 22.6-16.4 22.6 16.4-8.7-26.6 22.6-16.4zm-175 56.7 8.6 26.5h28l-22.7 16.4 8.7 26.6-22.6-16.4-22.6 16.4 8.7-26.6-22.6-16.4h27.9zm91.8 26.5-8.6-26.5-8.6 26.5h-28l22.6 16.4-8.6 26.6 22.6-16.4 22.6 16.4-8.7-26.6 22.6-16.4zm74.6-26.5 8.6 26.5h28L225 215.7l8.7 26.6-22.6-16.4-22.6 16.4 8.7-26.6-22.6-16.4h27.9z" clip-rule="evenodd"/></svg>