<svg xmlns="http://www.w3.org/2000/svg" width="512" height="512" fill="none"><path fill="var(--flag-palette-bright-red, #d80027)" d="M256 512a256 256 0 1 0 0-512 256 256 0 0 0 0 512"/><path fill="#EEE" d="M504 320a257 257 0 0 0 0-128H224V2c-48 6-92 25.3-128 54v136H8a257 257 0 0 0 0 128h88v135.9c36 28.8 80 48.1 128 54.1V320z"/><path fill="var(--flag-palette-blue, #0052b4)" d="M510 288a258 258 0 0 0 0-64H192V8a254 254 0 0 0-64 26.2V224H2a259 259 0 0 0 0 64h126v189.8a254 254 0 0 0 64 26.1V288z"/></svg>