<svg xmlns="http://www.w3.org/2000/svg" version="1.1"
  viewBox="1354.124 1759.583 353.107 353.107"
  width="340" height="340">
  <path d="m 0,0 c 0,-70.645 -57.269,-127.915 -127.915,-127.915 -70.645,0 -127.915,57.27 -127.915,127.915 0,70.646 57.27,127.915 127.915,127.915 C -57.269,127.915 0,70.646 0,0" style="fill:#d97706;fill-opacity:1;fill-rule:nonzero;stroke:none" transform="matrix(1.3333333,0,0,-1.3333333,1701.2307,1936.1365)"/>
  <path d="m 0,0 c -2.004,-1.705 -3.782,-3.651 -5.7,-5.449 -4.474,-4.291 -8.937,-8.595 -13.373,-12.922 -6.753,-6.386 -13.477,-12.818 -20.645,-18.739 -4.975,-4.375 -10.642,-8.083 -16.918,-10.288 -3.213,-1.162 -6.61,-1.729 -10.001,-2.006 -2.76,-0.002 -5.527,-0.121 -8.266,0.216 -8.225,0.839 -16.379,2.295 -24.472,3.983 -4.32,0.823 -8.588,1.952 -12.965,2.426 -5.702,0.372 -11.497,-0.61 -16.744,-2.886 0.047,6.62 0.019,13.243 0.045,19.863 -0.024,4.759 0.064,9.522 -0.048,14.279 4.18,1.505 7.647,4.358 11.277,6.823 3.448,2.327 6.703,5.096 10.694,6.457 3.305,1.129 6.85,0.391 10.158,-0.332 5.102,-1.117 10.105,-2.618 15.106,-4.111 5.769,-1.847 11.893,-1.473 17.863,-1.506 3.199,-0.002 6.397,0.002 9.596,-0.002 2.101,-0.048 4.382,-0.548 5.824,-2.201 2.496,-2.987 2.252,-7.91 -0.641,-10.554 -1.358,-1.37 -3.312,-1.918 -5.192,-1.944 -10.397,-0.002 -20.795,-0.002 -31.19,0 -1.026,-0.005 -2.107,-0.934 -2.013,-2.013 -0.118,-0.981 0.814,-1.906 1.795,-1.814 10.099,-0.009 20.197,-0.007 30.298,-0.002 2.305,-0.031 4.628,0.282 6.829,0.984 3.72,1.392 6.819,3.948 10.006,6.241 9.543,7.217 19.021,14.525 28.315,22.058 1.639,1.342 3.137,3.013 5.221,3.668 1.774,0.588 3.782,0.23 5.321,-0.806 C 1.6,8.415 2.392,6.663 2.416,4.941 2.537,3.011 1.42,1.219 0,0 m 3.732,11.388 c -2.978,3.332 -8.318,3.773 -12.111,1.643 -2.149,-1.095 -3.721,-2.956 -5.575,-4.445 -3.455,-2.793 -6.954,-5.53 -10.478,-8.24 -6.236,-4.789 -12.405,-9.667 -18.734,-14.335 -0.104,-0.102 -0.237,-0.114 -0.372,-0.102 l 0.23,0.241 c 0.749,3.619 0.024,7.797 -2.772,10.395 -1.989,2.165 -5.019,2.917 -7.862,2.993 -5.871,0.123 -11.742,0.011 -17.613,0.071 -3.046,0.242 -6.146,0.429 -9.071,1.392 -4.944,1.669 -10.021,2.916 -15.104,4.083 -3.683,0.737 -7.507,1.505 -11.246,0.72 -2.272,-0.509 -4.38,-1.564 -6.36,-2.764 -3.673,-2.288 -7.113,-4.916 -10.693,-7.339 -1.646,-1.178 -3.36,-2.271 -5.193,-3.134 -0.026,1.678 -0.986,3.307 -2.381,4.225 -1.133,0.766 -2.529,0.965 -3.867,1.022 -4.306,-0.003 -8.614,-0.005 -12.92,0 -1.344,0.021 -2.75,-0.071 -3.962,-0.711 -1.826,-0.996 -3.037,-3.007 -3.104,-5.084 -0.047,-2.449 -0.106,-4.901 -0.08,-7.353 -0.003,-12.329 0,-24.659 -0.003,-36.989 0.043,-1.882 0.84,-3.798 2.36,-4.96 1.337,-1.067 3.11,-1.252 4.763,-1.252 4.534,0.014 9.069,-0.019 13.601,0.062 2.138,0.052 4.173,1.354 5.093,3.286 0.83,1.631 0.621,3.495 0.673,5.254 1.366,0.617 2.705,1.304 4.142,1.745 4.005,1.278 8.245,2.009 12.451,1.589 2.978,-0.386 5.883,-1.162 8.825,-1.743 5.39,-1.124 10.8,-2.138 16.23,-3.051 5.172,-0.842 10.36,-1.636 15.595,-1.89 3.452,-0.285 6.923,0.097 10.328,0.671 2.393,0.375 4.731,1.038 6.983,1.92 5.897,2.165 11.279,5.565 16.095,9.57 4.844,3.884 9.428,8.076 13.992,12.28 2.274,2.184 4.676,4.24 6.826,6.549 2.201,2.257 4.524,4.389 6.798,6.57 2.075,2.087 4.228,4.09 6.348,6.13 2.119,2.112 4.256,4.206 6.461,6.228 1.015,1.065 2.205,1.997 2.968,3.273 2.127,3.535 1.599,8.5 -1.261,11.48" style="fill:#ffffff;fill-opacity:1;fill-rule:nonzero;stroke:none" transform="matrix(1.3333333,0,0,-1.3333333,1058.2201,1958.09)"/>
  <path d="m 0,0 c -4.054,-10.042 -9.653,-19.173 -16.919,-27.21 -8.204,-9.076 -18.058,-15.923 -29.164,-21.014 -1.328,-0.608 -2.44,-0.628 -3.77,0.037 -4.923,2.461 -9.792,4.997 -14.352,8.106 -8.614,5.873 -15.682,13.261 -21.685,21.74 -6.658,9.405 -10.85,19.898 -13.738,30.957 -3.027,11.593 -3.979,23.411 -3.473,35.356 0.147,3.455 0.457,6.903 0.719,10.352 0.09,1.182 0.284,1.381 1.415,1.498 2.381,0.246 4.774,0.394 7.149,0.686 12.33,1.519 24.204,4.638 35.292,10.362 3.228,1.667 6.364,3.524 9.473,5.407 1.161,0.703 2.055,0.659 3.146,-0.062 1.7,-1.123 3.449,-2.184 5.234,-3.167 12.515,-6.887 25.886,-11.065 40.088,-12.58 2.116,-0.226 4.239,-0.381 6.357,-0.588 1,-0.097 1.167,-0.273 1.335,-1.3 C 7.178,58.143 7.238,57.701 7.263,57.259 7.518,52.741 7.765,48.224 7.944,44.978 7.989,28.643 5.655,14.01 0,0 m 16.877,67.832 c -0.111,1.466 -0.243,1.568 -1.805,1.661 -0.531,0.032 -1.064,0.035 -1.596,0.067 -6.379,0.383 -12.737,0.953 -19.032,2.104 -14.256,2.605 -27.415,7.838 -39.226,16.317 -0.648,0.466 -1.33,0.885 -1.983,1.344 -0.599,0.421 -1.149,0.337 -1.698,-0.092 -0.35,-0.272 -0.717,-0.523 -1.073,-0.787 -4.795,-3.556 -9.982,-6.436 -15.357,-9.008 -11.424,-5.467 -23.47,-8.527 -36.086,-9.407 -3.008,-0.209 -6.021,-0.366 -9.032,-0.547 -1.361,-0.082 -1.389,-0.107 -1.616,-1.553 -0.069,-0.438 -0.14,-0.877 -0.176,-1.319 -0.355,-4.333 -0.837,-8.66 -1.026,-13 -0.43,-9.936 -0.443,-19.859 0.839,-29.763 1.549,-11.968 4.533,-23.501 9.775,-34.399 6.287,-13.07 14.969,-24.261 26.227,-33.452 8.107,-6.618 17.093,-11.733 26.597,-16.021 1.179,-0.532 2.151,-0.482 3.276,0.039 3.626,1.676 7.194,3.458 10.66,5.444 7.885,4.519 15.265,9.731 21.795,16.077 12.686,12.331 21.418,27.066 26.412,44.003 3.87,13.122 5.352,26.579 5.266,41.994 -0.134,2.849 -0.328,7.459 -0.574,12.066 -0.146,2.746 -0.36,5.489 -0.567,8.232" style="fill:#ffffff;fill-opacity:1;fill-rule:nonzero;stroke:none" transform="matrix(1.3333333,0,0,-1.3333333,1594.0569,1955.6049)"/>
  <path d="m 0,0 c -0.187,-1.582 -1.429,-3.011 -2.998,-3.349 -0.859,-0.185 -1.76,-0.236 -2.643,-0.241 -4.083,-0.024 -8.166,-0.01 -12.25,-0.01 v 0.015 c -3.906,0 -7.812,-10e-4 -11.718,0.002 -0.71,0 -1.426,-0.037 -2.129,0.036 -2.186,0.225 -3.734,1.791 -3.958,3.988 -0.062,0.616 -0.035,1.242 -0.032,1.863 0.029,7.191 0.061,14.382 0.098,21.572 0.003,0.71 -0.015,1.428 0.089,2.126 0.33,2.225 2.217,4.315 4.718,4.238 0.443,-0.014 0.887,0.017 1.331,0.016 7.901,-0.013 15.802,-0.029 23.703,-0.038 0.982,-0.001 1.976,0.018 2.859,-0.469 1.649,-0.908 2.736,-2.238 2.883,-4.185 0.053,-0.707 0.049,-1.42 0.05,-2.13 C 0.023,16.244 0.039,9.053 0.052,1.862 0.053,1.241 0.073,0.614 0,0 m -28.428,39.856 h 0.154 c 0,1.417 -0.05,2.836 0.013,4.249 0.076,1.703 0.542,3.323 1.378,4.812 1.571,2.794 3.909,4.495 7.116,4.999 1.881,0.296 3.731,0.206 5.51,-0.405 4.157,-1.427 6.604,-4.368 7.168,-8.723 0.399,-3.079 0.176,-6.194 0.18,-9.293 10e-4,-0.652 -0.424,-0.929 -1.039,-0.929 -1.595,0 -3.19,-0.018 -4.784,0.021 -0.989,0.024 -1.204,0.251 -1.218,1.315 -0.029,2.038 0.008,4.075 -0.007,6.113 -0.005,0.705 0.01,1.431 -0.146,2.11 -0.404,1.761 -2.02,3.067 -3.59,3.004 -1.622,-0.066 -3.187,-1.409 -3.508,-3.13 -0.145,-0.775 -0.119,-1.587 -0.121,-2.382 -0.005,-1.949 0.038,-3.898 0.02,-5.847 -0.008,-0.837 -0.299,-1.142 -1.104,-1.159 -1.683,-0.035 -3.366,-0.022 -5.049,-0.012 -0.643,0.004 -0.96,0.397 -0.968,1.005 -0.018,1.417 -0.005,2.835 -0.005,4.252 M 29.288,57.79 c -0.069,1.223 -0.154,1.266 -1.421,1.484 -0.349,0.061 -0.701,0.113 -1.054,0.149 -4.425,0.445 -8.774,1.319 -13.084,2.376 -10.399,2.55 -20.349,6.237 -29.542,11.81 -0.38,0.23 -0.761,0.458 -1.143,0.683 -0.501,0.295 -1.004,0.301 -1.508,0.002 -0.457,-0.272 -0.918,-0.54 -1.377,-0.809 -10.989,-6.43 -22.74,-10.779 -35.303,-12.895 -2.538,-0.427 -5.091,-0.757 -7.627,-1.191 -2.36,-0.403 -2.28,0.022 -2.457,-2.525 -0.043,-0.619 -0.089,-1.24 -0.107,-1.86 -0.194,-6.752 0.039,-13.483 0.734,-20.209 1.246,-12.062 4.59,-23.473 10.235,-34.209 6.203,-11.797 14.805,-21.409 26.048,-28.618 2.768,-1.775 5.69,-3.275 8.567,-4.857 1.134,-0.625 2.169,-0.629 3.252,0.011 0.152,0.091 0.316,0.162 0.474,0.241 8.168,4.097 15.447,9.414 21.812,15.968 6.954,7.16 12.088,15.506 15.99,24.655 5.409,12.68 7.667,25.982 7.929,39.347 0,0.784 0.017,1.228 -0.003,1.671 -0.131,2.926 -0.251,5.852 -0.415,8.776" style="fill:#ffffff;fill-opacity:1;fill-rule:nonzero;stroke:none" transform="matrix(1.3333333,0,0,-1.3333333,1554.4696,1963.5823)"/>
  <path d="m 0,0 c -2.127,0.938 -4.718,0.143 -6.114,-1.842 -1.388,-1.973 -1.293,-4.36 0.573,-6 1.016,-0.893 1.298,-1.79 1.228,-2.994 -0.036,-0.618 -0.007,-1.24 -0.007,-1.86 h -0.009 c 0,-0.974 -0.022,-1.949 0.005,-2.923 0.037,-1.382 0.21,-1.556 1.514,-1.596 0.531,-0.017 1.064,-0.014 1.593,0.022 0.819,0.055 1.118,0.321 1.144,1.139 0.055,1.682 0.103,3.367 0.066,5.048 -0.028,1.24 0.323,2.087 1.412,2.88 1.965,1.429 2.363,3.676 1.286,5.651 C 2.078,-1.351 1.169,-0.515 0,0" style="fill:#ffffff;fill-opacity:1;fill-rule:nonzero;stroke:none" transform="matrix(1.3333333,0,0,-1.3333333,1533.2004,1924.9149)"/>
</svg>