<svg xmlns="http://www.w3.org/2000/svg" version="1.1"
  viewBox="216.754 1759.583 353.107 353.107"
  width="340" height="340">
  <path d="m 0,0 c 0,-70.645 -57.269,-127.915 -127.915,-127.915 -70.645,0 -127.915,57.27 -127.915,127.915 0,70.646 57.27,127.915 127.915,127.915 C -57.269,127.915 0,70.646 0,0" style="fill:#d97706;fill-opacity:1;fill-rule:nonzero;stroke:none" transform="matrix(1.3333333,0,0,-1.3333333,563.8608,1936.1365)"/>
  <path d="m 0,0 c -4.738,4.738 -4.738,12.421 0,17.159 4.739,4.738 12.422,4.738 17.16,0 C 21.898,12.421 21.898,4.738 17.159,0 12.421,-4.738 4.738,-4.738 0,0 M -11.836,-44.549 28.598,-9.438 C 43.481,5.444 49.045,26.116 45.293,45.327 26.132,49.01 5.543,43.435 -9.294,28.598 -9.318,28.575 -9.341,28.551 -9.365,28.527 l -0.072,0.071 -35.103,-40.424 c -9.721,5.685 -22.411,4.36 -30.746,-3.975 -7.64,-7.639 -9.39,-18.938 -5.251,-28.255 0.877,2.245 2.221,4.35 4.035,6.163 3.805,3.805 8.891,5.549 13.871,5.234 l -4.493,-5.175 29.289,-29.289 5.144,4.466 c 0.297,-4.96 -1.448,-10.02 -5.239,-13.81 -1.813,-1.814 -3.918,-3.158 -6.162,-4.035 9.316,-4.138 20.615,-2.39 28.255,5.251 8.323,8.322 9.656,20.987 4.001,30.702" style="fill:#ffffff;fill-opacity:1;fill-rule:nonzero;stroke:none" transform="matrix(1.3333333,0,0,-1.3333333,434.94653,1894.1336)"/>
  <path d="M 0,0 C -1.299,1.07 -3.219,0.884 -4.29,-0.416 L -24.309,-24.724 0,-4.705 C 0.144,-4.585 0.292,-4.44 0.415,-4.29 1.485,-2.991 1.299,-1.07 0,0" style="fill:#ffffff;fill-opacity:1;fill-rule:nonzero;stroke:none" transform="matrix(1.3333333,0,0,-1.3333333,349.3172,1956.0933)"/>
  <path d="M 0,0 C -1.299,1.07 -3.22,0.884 -4.29,-0.416 L -24.309,-24.724 0,-4.705 C 0.143,-4.585 0.291,-4.44 0.415,-4.29 1.485,-2.991 1.299,-1.07 0,0" style="fill:#ffffff;fill-opacity:1;fill-rule:nonzero;stroke:none" transform="matrix(1.3333333,0,0,-1.3333333,372.38667,1979.1629)"/>
  <path d="M 0,0 C -1.24,1.129 -3.161,1.04 -4.29,-0.201 L -48.046,-48.246 0,-4.49 c 0.068,0.061 0.138,0.131 0.201,0.2 C 1.329,-3.05 1.24,-1.129 0,0" style="fill:#ffffff;fill-opacity:1;fill-rule:nonzero;stroke:none" transform="matrix(1.3333333,0,0,-1.3333333,360.84133,1967.9041)"/>
</svg>