<svg xmlns="http://www.w3.org/2000/svg" version="1.1"
  viewBox="785.655 1759.583 353.107 353.107"
  width="340" height="340">
  <path d="m 0,0 c 0,-70.645 -57.269,-127.915 -127.915,-127.915 -70.645,0 -127.915,57.27 -127.915,127.915 0,70.646 57.27,127.915 127.915,127.915 C -57.269,127.915 0,70.646 0,0" style="fill:#d97706;fill-opacity:1;fill-rule:nonzero;stroke:none" transform="matrix(1.3333333,0,0,-1.3333333,1132.7621,1936.1365)"/>
  <path d="m 0,0 c 0.806,1.456 3.339,1.074 3.704,-0.552 0.073,-1.176 0.007,-2.355 0.035,-3.531 4.012,-0.389 7.844,-2.639 10.004,-6.065 0.735,-1.205 1.446,-2.535 1.403,-3.991 0.027,-1.302 -1.531,-2.406 -2.731,-1.792 -0.633,0.27 -0.982,0.922 -1.143,1.56 -0.991,3.289 -4.052,5.88 -7.469,6.233 -0.028,-5.09 -0.201,-10.183 -0.047,-15.274 2.295,-0.51 4.626,-1.122 6.693,-2.274 2.616,-1.48 4.579,-4.183 4.897,-7.199 0.386,-2.61 -0.375,-5.335 -1.949,-7.44 -1.646,-2.186 -4.071,-3.775 -6.734,-4.408 -0.97,-0.258 -1.959,-0.41 -2.945,-0.595 -0.104,-1.556 0.45,-3.538 -0.958,-4.669 -0.884,-0.441 -2.11,-0.298 -2.646,0.61 -0.681,1.254 -0.313,2.741 -0.391,4.102 -2.673,0.284 -5.29,1.183 -7.493,2.731 -2.049,1.584 -3.68,3.801 -4.23,6.362 -0.178,0.777 -0.071,1.688 0.503,2.276 0.64,0.569 1.636,0.761 2.392,0.299 1.001,-0.51 0.884,-1.807 1.425,-2.661 1.337,-2.873 4.372,-4.531 7.384,-5.083 0.009,4.97 0,9.942 0.004,14.914 -2.757,0.481 -5.479,1.503 -7.644,3.322 -1.999,1.418 -3.405,3.642 -3.865,6.046 -0.396,2.793 0.197,5.793 1.935,8.057 2.279,2.99 5.916,4.657 9.584,5.126 C -0.235,-2.603 -0.479,-1.238 0,0 m -33.442,-47.298 c 2.234,-3.538 5.072,-6.654 8.18,-9.44 3.735,-3.21 8.143,-5.584 12.757,-7.27 5.214,-2.036 10.888,-2.686 16.455,-2.458 7.917,0.538 15.718,3.208 22.156,7.879 7.36,5.19 12.804,12.948 15.431,21.543 1.031,3.531 1.626,7.187 1.837,10.853 0.256,7.844 -1.695,15.784 -5.759,22.516 -2.027,3.291 -4.394,6.423 -7.313,8.982 C 25.271,10.283 18.819,13.724 12,15.54 7.03,16.858 1.816,17.188 -3.286,16.657 -14.345,15.554 -24.771,9.593 -31.516,0.797 c -3.04,-4.041 -5.371,-8.633 -6.744,-13.504 -1.963,-6.757 -2.387,-13.994 -0.858,-20.882 0.981,-4.882 3.018,-9.513 5.676,-13.709" style="fill:#ffffff;fill-opacity:1;fill-rule:nonzero;stroke:none" transform="matrix(1.3333333,0,0,-1.3333333,980.13853,1858.6688)"/>
  <path d="m 0,0 c 1.24,0.18 2.435,0.588 3.554,1.141 1.79,0.87 3.41,2.342 3.91,4.334 0.349,1.769 0.164,3.789 -1.062,5.197 -1.634,1.864 -4.105,2.616 -6.426,3.199 C 0.028,9.247 -0.017,4.624 0,0" style="fill:#ffffff;fill-opacity:1;fill-rule:nonzero;stroke:none" transform="matrix(1.3333333,0,0,-1.3333333,985.09893,1913.8267)"/>
  <path d="m 0,0 c -2.423,-0.486 -4.901,-1.513 -6.416,-3.559 -1.228,-1.593 -1.503,-3.808 -0.823,-5.688 0.674,-1.406 1.705,-2.668 3.066,-3.457 1.335,-0.754 2.722,-1.47 4.228,-1.814 C -0.007,-9.681 -0.069,-4.839 0,0" style="fill:#ffffff;fill-opacity:1;fill-rule:nonzero;stroke:none" transform="matrix(1.3333333,0,0,-1.3333333,979.66427,1869.2345)"/>
</svg>