<svg width="64" height="64" viewBox="0 0 64 64" fill="none" xmlns="http://www.w3.org/2000/svg">
  <rect width="64" height="64" rx="12" fill="#3056D3" fill-opacity="0.1"/>
  <path d="M32 20C28.68 20 26 22.68 26 26C26 29.32 28.68 32 32 32C35.32 32 38 29.32 38 26C38 22.68 35.32 20 32 20ZM44 26C44 23.24 41.76 21 39 21C38.68 21 38.38 21.04 38.08 21.1C39.96 22.86 41 25.3 41 28C41 30.7 39.96 33.14 38.08 34.9C38.38 34.96 38.68 35 39 35C41.76 35 44 32.76 44 30C44 28.9 44 27.8 44 26Z" fill="#3056D3"/>
  <path d="M32 34C27.58 34 20 36.22 20 40.4V44H44V40.4C44 36.22 36.42 34 32 34Z" fill="#3056D3"/>
  <path d="M48 40.4V44H52V40.4C52 38.24 47.62 36.68 43.52 36.14C45.76 37.32 48 38.9 48 40.4Z" fill="#3056D3"/>
</svg>
