<svg width="64" height="64" viewBox="0 0 64 64" fill="none" xmlns="http://www.w3.org/2000/svg">
  <rect width="64" height="64" rx="12" fill="#3056D3" fill-opacity="0.1"/>
  <path d="M42 18H22C19.8 18 18 19.8 18 22V38C18 40.2 19.8 42 22 42H30V46H26V50H38V46H34V42H42C44.2 42 46 40.2 46 38V22C46 19.8 44.2 18 42 18ZM42 38H22V22H42V38Z" fill="#3056D3"/>
  <path d="M28 26L26 28L28 30L26 32L30 36L32 34L30 32L32 30L30 28L32 26L28 22L26 24L28 26Z" fill="#3056D3"/>
  <path d="M36 26L38 28L36 30L38 32L34 36L32 34L34 32L32 30L34 28L32 26L36 22L38 24L36 26Z" fill="#3056D3"/>
</svg>
